<svg width="66" height="65" viewBox="0 0 66 65" fill="none" xmlns="http://www.w3.org/2000/svg">
<path d="M48.3537 31.4844C48.4925 31.6325 48.6004 31.8069 48.6708 31.9973C48.7413 32.1877 48.773 32.3902 48.7641 32.593C48.7552 32.7959 48.7058 32.9949 48.6189 33.1783C48.532 33.3618 48.4093 33.526 48.258 33.6614C48.1068 33.7968 47.9299 33.9006 47.738 33.9667C47.546 34.0327 47.3428 34.0598 47.1402 34.0462C46.9377 34.0326 46.7399 33.9787 46.5584 33.8876C46.377 33.7965 46.2156 33.67 46.0838 33.5156C45.3068 32.6473 43.6107 31.9922 42.1406 31.9922C40.6705 31.9922 38.9744 32.6473 38.1975 33.5156C37.9253 33.806 37.5504 33.9784 37.1528 33.9958C36.7552 34.0133 36.3666 33.8745 36.07 33.6091C35.7734 33.3437 35.5925 32.9729 35.5659 32.5758C35.5393 32.1787 35.6691 31.787 35.9275 31.4844C37.2859 29.9609 39.7844 28.9453 42.1406 28.9453C44.4969 28.9453 46.9953 29.9609 48.3537 31.4844ZM27.8025 33.5156C27.9344 33.67 28.0958 33.7965 28.2772 33.8876C28.4586 33.9787 28.6564 34.0326 28.859 34.0462C29.0615 34.0598 29.2648 34.0327 29.4567 33.9667C29.6487 33.9006 29.8255 33.7968 29.9768 33.6614C30.1281 33.526 30.2508 33.3618 30.3377 33.1783C30.4246 32.9949 30.474 32.7959 30.4829 32.593C30.4918 32.3902 30.4601 32.1877 30.3896 31.9973C30.3191 31.8069 30.2113 31.6325 30.0725 31.4844C28.7141 29.9609 26.2156 28.9453 23.8594 28.9453C21.5031 28.9453 19.0047 29.9609 17.6463 31.4844C17.5075 31.6325 17.3996 31.8069 17.3292 31.9973C17.2587 32.1877 17.227 32.3902 17.2359 32.593C17.2448 32.7959 17.2942 32.9949 17.3811 33.1783C17.468 33.3618 17.5907 33.526 17.742 33.6614C17.8932 33.7968 18.0701 33.9006 18.262 33.9667C18.454 34.0327 18.6572 34.0598 18.8598 34.0462C19.0623 34.0326 19.2601 33.9787 19.4416 33.8876C19.623 33.7965 19.7844 33.67 19.9162 33.5156C20.6932 32.6473 22.3893 31.9922 23.8594 31.9922C25.3295 31.9922 27.0256 32.6473 27.8025 33.5156ZM42.7145 41.4959C42.5623 41.366 42.386 41.2674 42.1956 41.2056C42.0053 41.1439 41.8047 41.1202 41.6052 41.136C41.4057 41.1518 41.2113 41.2067 41.0331 41.2977C40.8548 41.3886 40.6963 41.5138 40.5664 41.666C39.6396 42.7713 38.4818 43.6602 37.1746 44.27C35.8674 44.8798 34.4425 45.1959 33 45.1959C31.5575 45.1959 30.1326 44.8798 28.8254 44.27C27.5181 43.6602 26.3604 42.7713 25.4336 41.666C25.3037 41.5138 25.1451 41.3887 24.9669 41.2977C24.7887 41.2068 24.5943 41.1519 24.3948 41.1361C24.1953 41.1203 23.9947 41.1439 23.8044 41.2057C23.6141 41.2674 23.4378 41.366 23.2855 41.4959C23.1333 41.6258 23.0082 41.7844 22.9173 41.9626C22.8263 42.1408 22.7714 42.3352 22.7556 42.5347C22.7398 42.7342 22.7635 42.9348 22.8252 43.1251C22.8869 43.3154 22.9856 43.4917 23.1154 43.644C24.3286 45.0842 25.8418 46.2419 27.5492 47.0362C29.2566 47.8304 31.1169 48.2419 33 48.2419C34.8831 48.2419 36.7434 47.8304 38.4508 47.0362C40.1582 46.2419 41.6714 45.0842 42.8846 43.644C43.0145 43.4918 43.1131 43.3155 43.1749 43.1251C43.2366 42.9348 43.2603 42.7342 43.2445 42.5347C43.2287 42.3352 43.1737 42.1408 43.0828 41.9626C42.9919 41.7843 42.8667 41.6258 42.7145 41.4959ZM56.8672 12.1875V26.3479C56.8672 35.3488 54.4475 43.8318 50.0549 50.2303C45.543 56.809 39.4848 60.4297 33 60.4297C26.5152 60.4297 20.457 56.809 15.9451 50.2328C11.5525 43.8344 9.13281 35.3514 9.13281 26.3504V12.1875C9.13502 11.611 9.27742 11.0436 9.54775 10.5344C9.81808 10.0252 10.2082 9.58932 10.6845 9.26446C11.1608 8.93959 11.709 8.73546 12.2817 8.66965C12.8545 8.60385 13.4347 8.67835 13.9723 8.88673C17.5752 10.2731 24.8395 12.6192 33 12.6192C41.1605 12.6192 48.4248 10.2731 52.0277 8.88673C52.5653 8.67835 53.1455 8.60385 53.7183 8.66965C54.291 8.73546 54.8392 8.93959 55.3155 9.26446C55.7918 9.58932 56.1819 10.0252 56.4523 10.5344C56.7226 11.0436 56.865 11.611 56.8672 12.1875ZM53.8203 12.1875C53.8207 12.1046 53.8008 12.0228 53.7623 11.9493C53.7238 11.8758 53.6679 11.8129 53.5994 11.766C53.532 11.7182 53.4535 11.6883 53.3714 11.679C53.2893 11.6697 53.2061 11.6813 53.1297 11.7127C49.3287 13.2031 41.6582 15.666 33 15.666C24.3418 15.666 16.6713 13.2031 12.8703 11.7152C12.7936 11.6854 12.7107 11.6746 12.6289 11.6839C12.547 11.6932 12.4687 11.7223 12.4006 11.7686C12.3325 11.8152 12.2768 11.8777 12.2383 11.9507C12.1998 12.0237 12.1797 12.105 12.1797 12.1875V26.3453C12.1797 43.4611 21.5209 57.3828 33 57.3828C44.4791 57.3828 53.8203 43.4611 53.8203 26.3504V12.1875Z" fill="white"/>
</svg>
