<svg width="65" height="65" viewBox="0 0 65 65" fill="none" xmlns="http://www.w3.org/2000/svg">
<circle cx="32.5" cy="32.5" r="30.5" stroke="white" stroke-width="4"/>
<path d="M25.9 40.6C25.15 39.85 24.5623 38.9833 24.137 38C23.7117 37.0167 23.4993 36 23.5 34.95C23.5 33.9 23.7 32.8627 24.1 31.838C24.5 30.8133 25.15 29.8507 26.05 28.95C26.6333 28.3667 27.3543 27.8667 28.213 27.45C29.0717 27.0333 30.0883 26.704 31.263 26.462C32.4377 26.2207 33.7793 26.075 35.288 26.025C36.7967 25.975 38.484 26.0333 40.35 26.2C40.4833 27.9667 40.525 29.5917 40.475 31.075C40.425 32.5583 40.2873 33.896 40.062 35.088C39.8373 36.2793 39.5207 37.3207 39.112 38.212C38.7033 39.1033 38.1993 39.8493 37.6 40.45C36.7167 41.3333 35.779 41.9793 34.787 42.388C33.795 42.7967 32.7827 43.0007 31.75 43C30.6667 43 29.6083 42.7873 28.575 42.362C27.5417 41.9367 26.65 41.3493 25.9 40.6ZM28.7 40.2C29.1833 40.4833 29.6793 40.6877 30.188 40.813C30.6967 40.9383 31.2173 41.0007 31.75 41C32.5167 41 33.275 40.8457 34.025 40.537C34.775 40.2283 35.4917 39.7327 36.175 39.05C36.475 38.75 36.7793 38.329 37.088 37.787C37.3967 37.245 37.6633 36.537 37.888 35.663C38.1127 34.7877 38.2833 33.7293 38.4 32.488C38.5167 31.2467 38.5333 29.7673 38.45 28.05C37.6333 28.0167 36.7127 28.0043 35.688 28.013C34.6633 28.0217 33.6423 28.1007 32.625 28.25C31.6083 28.4 30.6417 28.6417 29.725 28.975C28.8083 29.3083 28.0583 29.7667 27.475 30.35C26.725 31.1 26.2083 31.8417 25.925 32.575C25.6417 33.3083 25.5 34.0167 25.5 34.7C25.5 35.6833 25.6877 36.546 26.063 37.288C26.4383 38.03 26.7673 38.5507 27.05 38.85C27.75 37.5167 28.675 36.2373 29.825 35.012C30.975 33.7867 32.3167 32.7827 33.85 32C32.65 33.05 31.6043 34.2377 30.713 35.563C29.8217 36.8883 29.1507 38.434 28.7 40.2Z" fill="white"/>
</svg>
