<svg width="18" height="20" viewBox="0 0 18 20" fill="none" xmlns="http://www.w3.org/2000/svg">
<g filter="url(#filter0_d_280_144)">
<path d="M8.8 6C9.13 6 9.4126 5.8824 9.6478 5.6472C9.8826 5.4124 10 5.13 10 4.8C10 4.47 9.8826 4.1874 9.6478 3.9522C9.4126 3.7174 9.13 3.6 8.8 3.6C8.47 3.6 8.1876 3.7174 7.9528 3.9522C7.7176 4.1874 7.6 4.47 7.6 4.8C7.6 5.13 7.7176 5.4124 7.9528 5.6472C8.1876 5.8824 8.47 6 8.8 6ZM8.8 12C7.19 10.63 5.9876 9.3574 5.1928 8.1822C4.3976 7.0074 4 5.92 4 4.92C4 3.42 4.4826 2.225 5.4478 1.335C6.4126 0.445 7.53 0 8.8 0C10.07 0 11.1874 0.445 12.1522 1.335C13.1174 2.225 13.6 3.42 13.6 4.92C13.6 5.92 13.2026 7.0074 12.4078 8.1822C11.6126 9.3574 10.41 10.63 8.8 12Z" fill="#0C7F81"/>
</g>
<defs>
<filter id="filter0_d_280_144" x="0" y="0" width="17.5996" height="20" filterUnits="userSpaceOnUse" color-interpolation-filters="sRGB">
<feFlood flood-opacity="0" result="BackgroundImageFix"/>
<feColorMatrix in="SourceAlpha" type="matrix" values="0 0 0 0 0 0 0 0 0 0 0 0 0 0 0 0 0 0 127 0" result="hardAlpha"/>
<feOffset dy="4"/>
<feGaussianBlur stdDeviation="2"/>
<feComposite in2="hardAlpha" operator="out"/>
<feColorMatrix type="matrix" values="0 0 0 0 0 0 0 0 0 0 0 0 0 0 0 0 0 0 0.25 0"/>
<feBlend mode="normal" in2="BackgroundImageFix" result="effect1_dropShadow_280_144"/>
<feBlend mode="normal" in="SourceGraphic" in2="effect1_dropShadow_280_144" result="shape"/>
</filter>
</defs>
</svg>
