<?xml version="1.0" encoding="UTF-8"?><svg id="a" xmlns="http://www.w3.org/2000/svg" viewBox="0 0 393.88 391.47"><defs><style>.b{fill:#197db9;}.c{fill:#68a449;}.d{fill:#156b42;}.e{fill:#236a34;}.f{fill:#8ac762;}.g{fill:#89c666;}.h{fill:#458f49;}.i{fill:#1a76b1;}.j{fill:#2898ce;}.k{fill:#1d6526;}.l{fill:#599a4a;}.m{fill:#256f39;}.n{fill:#166e2e;}.o{fill:#93ca5e;}.p{fill:#236836;}.q{fill:#216a36;}.r{fill:#2a6fa1;}.s{fill:#90c851;}.t{fill:#87c155;}.u{fill:#20670d;}.v{fill:#408d49;}.w{fill:#2377b2;}.x{fill:#1d6a36;}.y{fill:#39894a;}.a`{fill:#207dbc;}.aa{fill:#3f8c4a;}.ab{fill:#6da848;}.ac{fill:#82c16a;}.ad{fill:#236d39;}.ae{fill:#246741;}.af{fill:#097c49;}.ag{fill:#2d6d54;}.ah{fill:#176a3d;}.ai{fill:#8ac65a;}.aj{fill:#2a7ebc;}.ak{fill:#468f49;}.al{fill:#267eb0;}.am{fill:#2f719d;}.an{fill:#29a7de;}.ao{fill:#28a3d9;}.ap{fill:#2896ca;}.aq{fill:#156a3e;}.ar{fill:#24680c;}.as{fill:#8acb63;}.at{fill:#7eb447;}.au{fill:#56984a;}.av{fill:#288dc0;}.aw{fill:#4b924a;}.ax{fill:#66a348;}.ay{fill:#97cc3f;}.b`{fill:#338849;}.ba{fill:#276e3a;}.bb{fill:#1c75b1;}.bc{fill:#1b78b7;}.bd{fill:#2d744b;}.be{fill:#1b7ab8;}.bf{fill:#2181be;}.bg{fill:#2883b6;}.bh{fill:#257bac;}.bi{fill:#9fc648;}.bj{fill:#3a8a4a;}.bk{fill:#22680f;}.bl{fill:#81be58;}.bm{fill:#117f49;}.bn{fill:#2882b4;}.bo{fill:#196d45;}.bp{fill:#87bd51;}.bq{fill:#1f834a;}.br{fill:#1c78b5;}.bs{fill:#116d41;}.bt{fill:#158049;}.bu{fill:#78b048;}.bv{fill:#226a35;}.bw{fill:#89c356;}.bx{fill:#87c667;}.by{fill:#206717;}.c`{fill:#166c41;}.ca{fill:#126a32;}.cb{fill:#50954a;}.cc{fill:#1f683b;}.cd{fill:#83b746;}.ce{fill:#2781b2;}.cf{fill:#178049;}.cg{fill:#218449;}.ch{fill:#86cc72;}.ci{fill:#29a0d6;}.cj{fill:#6eaf5f;}.ck{fill:#226939;}.cl{fill:#97c950;}.cm{fill:#95c544;}.cn{fill:#6da749;}.co{fill:#226a34;}.cp{fill:#85cb71;}.cq{fill:#89ca75;}.cr{fill:#1a6939;}.cs{fill:#17663c;}.ct{fill:#1c77b3;}.cu{fill:#2077b1;}.cv{fill:#1c6938;}.cw{fill:#5d9d49;}.cx{fill:#55984a;}.cy{fill:#2a7099;}.d`{fill:#2895ca;}.da{fill:#1e76b1;}.db{fill:#1e7ab8;}.dc{fill:#7bac33;}.dd{fill:#2890c4;}.de{fill:#8ec550;}.df{fill:#8bcc69;}.dg{fill:#2798ce;}.dh{fill:#246c46;}.di{fill:#9aca43;}.dj{fill:#5e9228;}.dk{fill:#86ca6e;}.dl{fill:#19814a;}.dm{fill:#067c48;}.dn{fill:#186d45;}.do{fill:#2478aa;}.dp{fill:#227aa8;}.dq{fill:#1a824a;}.dr{fill:#127f49;}.ds{fill:#1f7fab;}.dt{fill:#2790c4;}.du{fill:#1f77b5;}.dv{fill:#8ec963;}.dw{fill:#276d36;}.dx{fill:#0d7e4a;}.dy{fill:#206935;}.e`{fill:#166c46;}.ea{fill:#216d37;}.eb{fill:#95c85e;}.ec{fill:#2887bb;}.ed{fill:#73ac48;}.ee{fill:#62a049;}.ef{fill:#2c6f99;}.eg{fill:#299fd5;}.eh{fill:#057a49;}.ei{fill:#2b7544;}.ej{fill:#288bbe;}.ek{fill:#1a6e49;}.el{fill:#1b683b;}.em{fill:#288abd;}.en{fill:#1e76b3;}.eo{fill:#71aa48;}.ep{fill:#206a3d;}.eq{fill:#417c16;}.er{fill:#25854a;}.es{fill:#216b35;}.et{fill:#2886b8;}.eu{fill:#16693e;}.ev{fill:#22690f;}.ew{fill:#83bc57;}.ex{fill:#328849;}.ey{fill:#8bbe45;}.f`{fill:#156d3b;}.fa{fill:#236c37;}.fb{fill:#166d44;}.fc{fill:#75ae48;}.fd{fill:#2c8649;}.fe{fill:#4f954a;}.ff{fill:#4e7d9a;}.fg{fill:#126a39;}.fh{fill:#299cd2;}.fi{fill:#5c9c49;}.fj{fill:#226b34;}.fk{fill:#2b6d11;}.fl{fill:#619f49;}</style></defs><path class="af" d="M302.67,378.67l-.13,.1h-.16c-.51,.28-1.04,.41-1.58,.08-1.55-1.32-2.58-2.66-1.07-4.78,.53-.74,.18-1.94,.18-2.93,0-19.41,0-38.82,.02-58.23,0-2.27,.07-4.55,.94-6.7,1.33-.65,2.5,.25,3.63,.59,2.44,.72,4.94,1.19,7.39,1.86,.61,.32,1.29,.6,.9,1.51-.78,.94-.91,2.05-.91,3.22,0,17.62,0,35.24,.01,52.86,0,.38-.08,.8,.05,1.14,.9,2.27,.28,4.31-.85,6.28-.75,2.38-3.1,2.63-4.91,3.53-1.12,.56-2.36,.91-3.5,1.47Z"/><path class="dy" d="M329.27,123.85l.47,.41c.84,.19,1.51,.67,2.16,1.24,4.02,3.5,7.99,7.05,11.67,10.92,1.8,1.89,4.05,3.22,5.91,5.01,1.09,1.05,2.43,1.9,2.77,3.53l.45,.43c.88,.46,1.99,.65,2.15,1.91,.32,.29,.64,.59,.96,.88,1.87,.53,2.98,1.89,3.83,3.53l.06,.06c.91,.76,2.31,.98,2.64,2.38l.42,.44c4.01,2.27,7.13,5.6,10.26,8.87,1.22,1.28,3.22,1.88,3.59,3.93,.2,.6,.57,.99,1.24,.99,1,.23,1.62,.86,1.94,1.82h0c1.37,.78,2.59,1.76,3.86,2.69,.25,.2,.46,.43,.71,.62,1.61,1.59,3.41,3.02,4.57,5.02v-.02c1.53,.28,2.21,1.46,2.82,2.71,.19,.43,.47,.75,.94,.88,.17,.14,.29,.31,.35,.52,.06,.85-.36,1.16-1.17,1.04l-.67,.02c-.47,.04-.92,.04-.96-.61,.05-.23,.14-.47,.06-.71-.25-.4-.66-.63-.99-.95-9.5-8.63-18.92-17.35-28.38-26.02-11.38-10.43-22.75-20.85-34.08-31.33-3.42-3.16-7-6.15-10.32-9.42-.83-1.22-2.02-2.06-3.22-2.87-1.92-1.87-3.77-3.83-5.93-5.45-.47-.56-.97-1.08-1.57-1.51-2.06-1.96-4.29-3.73-6.25-5.8-.57-.75-1.22-1.41-2.07-1.84-4.51-4.01-8.9-8.17-13.36-12.24-8.77-7.98-17.47-16.03-26.2-24.06-6.75-6.21-13.54-12.4-20.26-18.64-2.74-2.55-5.4-5.19-8.33-7.54-1.64-1.63-3.09-3.46-5.09-4.7-6.09-5.65-12.21-11.27-18.35-16.86-.83-.75-1.79-1.48-1.81-2.79,.08-.36,.29-.6,.64-.72,1.94,.06,2.58,1.58,3.33,2.97,.01,.46,.34,.54,.7,.57,2.53,1.09,3.99,3.35,5.72,5.3,.07,.14,.18,.2,.33,.2,2.34,.66,3.15,2.95,4.72,4.43l.84,.74c1.85,.22,2.63,1.57,3.27,3.07,.16,.46,.44,.79,.94,.88,2,.52,2.93,2.25,4.12,3.68h0c1.95,.92,3.61,2.16,4.54,4.18h0c1.22,.6,2.45,1.19,2.82,2.69,0,.31,.18,.46,.48,.47,1.5,.75,3.21,1.26,3.65,3.21h0c1.91,.97,3.74,2.02,4.55,4.19h0c3.58,2.85,7.37,5.47,10.09,9.26,.63,.88,1.41,1.61,2.31,2.2,1.26,.19,1.88,1.1,2.37,2.14,.44,.38,.87,.76,1.31,1.14,.55,.03,.7,.49,.93,.87h0c.5,.11,.79,.44,.93,.92,.19,.44,.46,.78,.96,.87,1.24,.73,2.61,1.32,3.16,2.83,.15,.45,.44,.74,.89,.88,1.66,.64,2.66,2,3.68,3.34l.38,.36c.76,.16,1.18,.7,1.5,1.35h0c1.82,1.06,3.76,1.99,4.57,4.16h-.01c2.79,1.6,5.34,3.48,6.93,6.38h0c1.41,.56,2.34,1.66,3.18,2.86,.41,.79,1.07,1.3,1.81,1.75,.91,.3,1.47,.97,1.93,1.76l.04,.03c.58,.52,1.43,.74,1.71,1.58l.38,.35c.84,.08,1.32,.56,1.48,1.38,.46,.76,1.1,1.34,1.86,1.77,1.31,.32,2.34,.97,2.69,2.37h0c.54,.05,.82,.38,.96,.86h0c.61,.31,1.22,.63,1.39,1.38l.47,.44c1.27,.4,2.4,.97,2.69,2.45l.44,.35c1.07,.16,1.7,.77,1.91,1.82l.44,.44c.44,.16,.81,.41,.96,.88,1.36,1.24,2.72,2.48,4.08,3.72,.96,.51,1.78,1.18,2.34,2.14l1.24,1.12c1.01,.2,1.68,.78,1.97,1.77h0c.76,.49,1.34,1.28,2.32,1.4,2.57,1.9,4.62,4.37,7.1,6.36,.61,.49,.85,1.24,1.1,1.95Z"/><path class="ah" d="M300.83,378.69c.51,.02,1.03,.04,1.54,.06-.12,1.01-1.06,1.01-1.7,1.29-18.47,8.06-37.75,12.09-57.94,11.33-12.64-.47-25.06-2.41-37.21-6.03-.51-.15-1.04-.22-1.56-.33-1.85-.14-3.56-.67-5.08-1.75h0c-.56-.41-1.48,0-1.87-.8l-.44-.1c-2-.85-4.48-.61-5.98-2.62l-.46-.14c-.31-.55-1.66,.25-1.38-1.06,.35-.4,.83-.48,1.32-.54,1.27-.1,2.35,.48,3.45,.98,3.08,1.57,6.36,2.61,9.62,3.71,2.07,.83,4.26,1.23,6.39,1.86,2.38,.91,4.94,1.08,7.38,1.75,2.52,.74,5.15,.87,7.71,1.38,2.15,.39,4.33,.61,6.5,.94,3.01,.69,6.12,.34,9.14,.85,1.8,.16,3.59-.5,5.4-.06,1.41,.41,2.76,.39,4.25,.05,2.31-.52,4.71-.19,7.07-.2,4.24-.26,8.4-1.13,12.6-1.64,.57-.19,1.18-.23,1.77-.34,.89-.12,1.83,.02,2.67-.41,.56-.11,1.07-.37,1.61-.51,1.11-.26,2.22-.51,3.36-.61,2.25-.85,4.63-1.28,6.9-2.05,1.05-.04,1.93-.59,2.85-1,1.76-.38,3.46-.91,5.04-1.79,2.38-.62,4.41-2.34,7.03-2.21Z"/><path class="br" d="M303.53,177.69c6.95,6.32,13.88,12.66,20.85,18.96,8.45,7.63,16.92,15.23,25.39,22.84,.34,.3,.72,.56,1.08,.84,1.14,1.44,2.51,2.64,4.05,3.64,1.22,.3,2.29,.73,2.01,2.33-.27,.25-.59,.35-.94,.35-1.87-.49-3.09-1.94-4.42-3.16-9.3-8.52-18.69-16.92-28.11-25.3-2.61-2.78-5.63-5.11-8.4-7.73-3.19-2.72-6.1-5.75-9.51-8.21-1.54-1.37-2.72-3.13-4.5-4.25-.25-.2-.48-.42-.69-.65-1.48-1.67-3.33-2.94-4.96-4.45-1.75-2.02-4.03-3.46-5.83-5.41-.48-.5-.93-1.04-1.61-1.29-.56-.28-.99-.72-1.39-1.19-2.21-2.51-4.87-4.51-7.32-6.75-1.87-1.58-3.64-3.26-5.33-5.02-.58-.58-1.29-.98-1.93-1.48-.72-.6-1.52-1.1-2.07-1.89-.88-.91-2-1.53-2.85-2.47-.53-.6-1.28-1.12-.73-2.1,.21-.12,.41-.09,.59,.07,3.74,2.29,6.63,5.57,9.87,8.43,8.05,7.11,16.02,14.31,24.03,21.48,1.1,.59,1.92,1.51,2.73,2.43Z"/><path class="be" d="M355.93,226.21l1.03-.04c1.07-.26,1.55,.64,2.25,1.13,1.19,1.49,3.48,2,3.82,4.26-.06,.12-.12,.23-.18,.35-.11,.08-.21,.16-.32,.24-.13,.05-.26,.1-.39,.14-10.2-.24-20.4-.07-30.6-.12-1.73,0-3.46-.03-5.15,.39-.18,.24-.3,.5-.38,.79-.44,1.45,.11,2.88,.11,4.32-.03,19.95-.02,39.91-.03,59.86,0,.89,.26,1.85-.44,2.64-.58,.31-1.18,.52-1.85,.44-3.19-.57-6.39-1.09-9.57-1.73-13.16-2.66-25.47-7.53-37-14.41-1.9-1.14-3.85-2.2-5.77-3.29-.27-.33-.25-.65,.05-.95,1.62-.59,2.81,.43,4,1.17,7.11,4.38,14.55,8.05,22.37,10.99,7.25,2.72,14.74,4.53,22.34,5.87,1.2,.21,2.71,.99,3.76-.53,.56-1.15,.52-2.38,.52-3.6,0-19.79,0-39.57,0-59.36,0-1.13-.18-2.3,.32-3.39,.16-.25,.38-.44,.64-.58,.96-.33,1.96-.22,2.95-.22,9.22-.01,18.45,0,27.67-.01,.83,0,1.68,.13,2.46-.21,.21-1.03-.85-1.06-1.25-1.59-.59-.79-1.7-1.28-1.34-2.56Z"/><path class="k" d="M62.91,354.78c-1,.31-2.01,.62-3.2,.98,0-3.38,0-6.51,0-9.63,0-53.29-.02-106.58,.06-159.87,0-2.39-.65-2.92-2.9-2.82-5.64,.24-11.29-.46-16.93,0l-.21-.08-.21,.08c-1.13-.09-2.46,.72-3.29-.72,.57-.97,1.55-.79,2.42-.8,2.86-.04,5.71-.01,8.57-.02,1.32,.04,2.65-.09,3.97,.13,2.11,.59,4.26,.26,6.4,.32,2.91,.08,3.23,.38,3.27,3.37,.01,.99,0,1.99,0,2.98,0,53.48,0,106.97,0,160.45,0,1.15-.09,2.3,.14,3.42,.18,.63,.66,.95,1.24,1.17,.41,.22,.85,.43,.68,1.04Z"/><path class="ck" d="M60.62,64.97c10.78,.03,21.55,.08,32.33,.1,6.04,.01,12.08-.02,18.12-.03,.87,.55,.75,1.43,.75,2.26,.02,2.21-.03,4.42,.04,6.63,.02,.53-.51,1.46,.67,1.53,4.58-4.16,9.39-8.05,13.68-12.5,.56-.58,1.33-.71,1.95-1.14h0c.11-.82,.79-1.07,1.39-1.4,.1-.11,.15-.24,.15-.38-.05-.89,.46-1.29,1.26-1.42,.37-.02,.7,.08,.98,.33,.21,.31,.26,.65,.2,1.01-1.12,2.14-3.02,3.61-4.73,5.19-4.54,4.17-9.05,8.35-13.53,12.58-1.03,.97-1.96,2.73-3.97,1.75-.73-2.16-.21-4.39-.37-6.58-.15-2.05,.32-4.12-.34-6.13-.64-.78-1.53-.6-2.35-.6-14-.01-28,0-42,0-.84,0-1.69-.08-2.44,.42-.44,.39-.42,.91-.39,1.44,0,17.47,.01,34.93,0,52.39,0,1.34,.27,2.78-.85,3.9-.4,.27-.82,.32-1.27,.15-.85-.79,.02-1.64-.07-2.46,.23-3.28,.09-6.56,.1-9.84,.02-13.97,.01-27.93,0-41.9,0-1.06,.12-2.14-.18-3.19-.24-.92-.34-1.78,.87-2.1Z"/><path class="x" d="M190.22,378.64c-.48,.01-.97,.03-1.45,.04-1.21,.63-1.83-.62-2.76-.87-.78-.05-1.2-.72-1.81-1.05-.73-.07-1.34-.37-1.84-.9l.03,.02c-3.33-1.17-6.84-2.03-9.25-4.93-.4-.2-.79-.4-1.19-.6-.59-.16-1.14-.4-1.56-.86h0c-.59-.35-1.35-.38-1.82-.96l.02,.02c-.59-.35-1.46-.19-1.81-.99v.02c-1.22-.06-1.97-.96-2.86-1.62-.89-.07-1.55-.62-2.25-1.09-1.19-.37-2.52-.49-3.24-1.74-.07-.11-.17-.15-.31-.12-.53-.22-1.21-.16-1.53-.78-.9-.01-1.56-.54-2.24-1.02-2.37-.73-4.79-1.35-6.83-2.87h-.02c-1.86,.35-3.18-.88-4.67-1.61l-.46-.08c-3.64-.45-7.16-1.36-10.56-2.72l-.75-.1c-1.44-.26-2.89-.47-4.3-.86l-.43-.08c-1.53,.51-2.88,.04-4.17-.77l-.91-.05c-2.34,.2-4.58-.4-6.85-.81-.31-.32-.34-.69-.16-1.08,.91-.84,1.98-.46,3.01-.4,1.12,.3,2.27,.18,3.41,.23,1.1,.15,2.21,.28,3.31,.46,.94,.26,1.88,.5,2.86,.52,2.29,.3,4.54,.85,6.8,1.34,2.34,.93,4.9,1.04,7.28,1.82,1.68,.72,3.44,1.25,5.18,1.81,.22,.03,.44,.09,.66,.17,2.4,.91,4.89,1.58,7.19,2.74,1.19,.8,2.6,1.14,3.85,1.83,2.34,1.45,4.95,2.36,7.33,3.72,2.2,1.41,4.61,2.43,6.89,3.7,2.29,1.67,5.05,2.47,7.37,4.08,2.12,1.11,4.27,2.17,6.42,3.24,.95,.57,1.97,1,2.95,1.51,.7,.36,1.53,.68,1.5,1.71Z"/><path class="cc" d="M0,182.12c.48-.41,.96-.83,1.44-1.24,.07-.24,.05-.55,.44-.49,.77-.75,1.54-1.5,2.31-2.25,1.75-2.39,3.83-4.43,6.25-6.13l.61-.86c1.31-1.55,3.13-2.65,4.06-4.54,.44-.7,1.32-.57,1.91-1h0c1.11-1.98,2.49-3.69,4.68-4.57l.5-.45c.67-1.87,2.25-2.81,3.83-3.76l.59-.57c.93-1.75,2.18-3.17,4.03-3.99l.54-.57c.33-1.44,1.55-1.99,2.66-2.65l.55-.57c.23-.43,.55-.72,1.06-.76,.35,0,.66,.11,.9,.38,.21,1.57-1.04,2.31-1.94,3.16-9.99,9.34-19.39,19.27-29.37,28.63-.28,.26-.59,.48-.88,.98,3.63,.06,7.2-.03,10.7,.69,1.63,.52,3.31,.25,4.96,.36,.83,.05,1.9-.26,2.17,1.03-5.2,.02-10.4,.04-15.6,.06-.15,.29-.3,.29-.45,0l-.16-.07-.17,.07c-1.5-.38-3.02-.02-4.52-.19-.47-.05-1.16,.22-1.12-.68Z"/><path class="ae" d="M390.39,183.05c.27,.21,.54,.43,.82,.64-.42,.08-.85,.16-1.27,.23-1.84,.61-3.67,.84-5.51,0h-2.76c-4.58-.04-9.16-.11-13.74-.12-11.61-.02-23.22,.03-34.83-.03-1.72,0-2.45,.35-2.34,2.26,.18,2.88,.05,5.78,.05,8.87-1.21-.32-1.86-1.01-2.46-1.76,.1-.32,.3-.57,.51-.8,.24-.42,.29-.9,.42-1.36,.49-1.89,.19-3.81,.27-5.72,.1-2.38,.51-2.89,2.82-2.9,18.64-.04,37.29-.03,55.93,0,.76,0,1.55-.03,2.09,.68Z"/><path class="ea" d="M104.49,350.25c-8.42,.06-16.85-.07-25.2,1.33-.59,.1-1.17,.28-1.76,.42-.58,.05-1.16,.1-1.74,.16-1,.64-2.05,1.01-3.25,.72-.79,.02-1.59-.02-2.26,.5-2.54-.01-4.86,1.19-7.36,1.4-.32-.16-.64-.31-.97-.47-.09-.3-.01-.56,.23-.76,4.21-1.91,8.77-2.46,13.25-3.3,9.4-1.76,18.91-2.08,28.45-1.88,2.44,.05,4.84,.53,7.29,.57,.7,.01,2-.07,1.67,1.42-2.79,.09-5.57,.24-8.35-.11Z"/><path class="d" d="M365.1,301.52c1.44-1.33,3.35-2.04,4.67-3.53,1.13-2.16,3.54-3.08,4.87-5.04,.27-.44,.64-.79,1.05-1.1,.68-.41,1.28-.91,1.75-1.56,.13-.16,.27-.3,.42-.43,1.53-1.18,2.34-3.1,4.16-3.96,.06-.14,.14-.27,.24-.39,.99,.01,1.07,.73,1.15,1.46-.08,1.67-.51,3.2-1.69,4.46-.11,.11-.14,.25-.08,.39-.36,2.13-1.17,4.17-1.36,6.34-.06,.66-.46,1.09-.85,1.54l-.09,.45c.54,1.41-.49,2.52-.98,3.57-.99,2.12-1.11,4.7-3.07,6.35-.35,.1-.69,.06-1-.13-.72-1.21,.07-2.26,.53-3.21,2.33-4.76,3.08-10,4.69-14.83-3.52,3.3-6.96,6.84-11.19,9.44-.72,.44-1.47,.82-2.36,.73-.35-.07-.65-.23-.85-.54Z"/><path class="es" d="M168.49,24.11l.99-.89c.42-1.34,1.86-1.48,2.7-2.33l.04-.04c1.2-.9,1.29-3,3.29-3.04,.14,0,.28-.02,.42-.05,.28,.23,.39,.54,.39,.9-.53,1.99-2.18,3.08-3.58,4.33-6.24,5.59-12.27,11.41-18.39,17.14-1.95,1.82-4.03,3.5-5.92,5.39-.49,.49-1.05,.9-1.8,.87-.35-.09-.59-.3-.73-.63,1.15-2.08,2.15-4.33,4.84-4.89l.37-.34c.89-.9,1.52-2.08,2.75-2.62h0c.87-.98,1.39-2.34,2.85-2.68l-.02,.02c.28-1.13,1.12-1.65,2.15-1.96l.04-.03c.46-1.39,1.64-2.03,2.82-2.66h0c.34-.92,.79-1.73,1.92-1.81,.15,0,.25-.05,.31-.19,.93-2.09,2.8-3.22,4.55-4.47Z"/><path class="fj" d="M175.94,18.72c0-.32-.01-.64-.02-.96,0-.73,.8-.83,1.05-1.37,1.72-2.44,3.5-4.81,6.4-5.99l2.16-2.01c.89-2.35,3.13-3.42,4.87-4.92,.59-.51,1.28-1.03,2.02-1.41h.01c1.59-2.74,2.38-2.75,4.16-.06,.03,.12,.11,.18,.23,.17,.53,.09,.86,.41,1.04,.91h0c.92,.3,1.46,1.01,1.9,1.82,.16,.45,.46,.74,.92,.87,1.19,.53,2.07,1.39,2.72,2.5l.37,.31c.66,.18,1.36,.34,1.06,1.3l-.5,.59c-1.65,.07-2.58-1.17-3.63-2.1-1.6-1.41-3.06-2.96-4.69-4.35-1.2-1.03-1.98-.86-3.08,.16-4.28,4-8.68,7.88-12.88,11.98-1.16,1.13-2.21,2.58-4.12,2.56Z"/><path class="fb" d="M349.84,346.48l-.42,.48c-.04,1.47-1.11,1.87-2.26,2.2l-.46,.45c-1.13,1.84-2.88,3.02-4.57,4.25h0c-1.3,2.17-3.12,3.73-5.5,4.6h0c-.45,1.01-1.33,1.49-2.31,1.83h0c-.19,.42-.45,.76-.97,.76-.35,.1-.73,.15-.88,.56-.76,1.52-2.25,2.05-3.68,2.65-.22-.04-.41-.14-.57-.31-.39-1.32,.56-2.04,1.39-2.62,8.7-6.14,16.29-13.53,23.74-21.09,.7-.71,1.37-1.79,2.7-1.09,.5,1.13-.38,1.44-1.1,1.84-.28,.35-.57,.71-.85,1.06-.89,1.99-2.27,3.5-4.27,4.41Z"/><path class="ep" d="M36.34,148.15l-1.06-.05c.37-2.59,2.68-3.63,4.28-5.21,.49-.48,1.2-.89,1.93-1.13l.39-.38c.18-1.32,.94-2.12,2.22-2.43l.47-.46c1.19-1.72,2.73-3.07,4.51-4.17l.05-.05c.54-1.29,1.51-2.13,2.76-2.68l.02-.02c2.45-2.3,4.9-4.59,7.35-6.89,.3,.22,.41,.53,.43,.88-.1,1.17-.96,1.87-1.69,2.63-6.25,6.48-12.91,12.52-19.31,18.84-.63,.62-1.23,1.42-2.33,1.12Z"/><path class="f`" d="M22.02,182.94c-1.67-.76-3.44-.19-5.16-.37-.88-.09-1.84,.26-2.62-.45,.69-.91,1.7-.93,2.7-.93,9.24-.03,18.48-.03,27.72,0,.85,0,1.69,.03,2.41,.57,.27,.21,.36,.48,.27,.8-2.89,0-5.78,0-8.66,.04-.81,0-1.69-.22-2.4,.43-2.12,1.24-4.27,.8-6.42,.1l-7.84-.18Z"/><path class="ad" d="M146.02,45.71l.47,.33c.55,1.13-.34,1.67-.98,2.25-3.78,3.45-7.47,6.98-11.22,10.47-.68,.63-1.28,1.6-2.49,1.1l-.06-1c.61-2.26,2.19-3.57,4.29-4.37l1.35-1.23c1.35-1.28,1.96-3.34,4.03-3.87l.5-.51c.46-1.26,1.46-1.89,2.67-2.27l.05-.06c.26-.61,.73-.89,1.39-.83Z"/><path class="dn" d="M328.37,363.97l.52,.03c-.4,1.84-2.09,2.02-3.42,2.67-.13-.02-.22,.03-.27,.15-.36,1.27-1.53,1.33-2.5,1.7-.12-.03-.21,0-.27,.12-.89,1.75-2.55,2.25-4.27,2.65-.13-.02-.23,.02-.3,.14-.42,.63-1.24,.44-1.76,.87l-.21-.07c-.23,.11-.41,.06-.54-.16-.2-1.15,.65-1.7,1.43-2.08,2.54-1.24,4.48-3.36,6.98-4.64,.8-.29,1.44-.83,2.13-1.29,.81-.53,1.63-.84,2.48-.09Z"/><path class="bo" d="M315.5,372.22c.12,0,.25,0,.37,0,.02,.08,.04,.17,.06,.25-1.1,1.37-2.67,1.93-4.25,2.47h-.16l-.12,.1c-1.28,1.7-3.07,2.37-5.11,2.57-1.26,.16-2.21,1.41-3.63,1.04,1.73-1.86,4.25-2.33,6.33-3.58,.52-.31,1.01-.62,1.47-1,2.09-2.54,2.88-2.83,5.03-1.87Z"/><path class="e`" d="M375.14,309.79c-.93,1.98-1.85,3.95-2.78,5.93-.39,.2-.39,.57-.43,.93-.02,2.67-2.12,4.12-3.48,6.01l-.23,.4c-.11,.71-.45,1.25-1.12,1.56-.22-.09-.39-.24-.5-.45-.43-2.17,1.06-3.71,1.9-5.41,1.27-2.57,3.03-4.87,4.2-7.5,.31-.69,.77-1.31,1.62-1.45h.82Z"/><path class="ag" d="M383.49,286.81h-.45c-.26-.43-.52-.87-.78-1.3,.11-.15,.22-.3,.33-.44,.71-.08,.81-1.14,1.79-1.06,.44,1.01-.61,1.57-.73,2.38l-.15,.43Z"/><path class="ek" d="M366.76,325.35c-.26,.42-.52,.85-.78,1.27-.14,.51-.36,.88-.97,.54-.46-2.17-.04-2.78,1.89-2.74l.09,.1c.2,.36,.29,.68-.23,.84Z"/><path class="ae" d="M392.75,182.42c.62,.29,1.05,.74,1.13,1.45-.67-.07-1.34-.13-2.01-.2,.5-.27,.85-.65,.88-1.25Z"/><path class="do" d="M227.45,131.63l1.76-1.33c1.81-.43,2.86-1.7,3.62-3.29l3.65-3.29c3.12-2.17,5.53-1.32,7.46,1.72,.27,.42,.81,.67,1.26,.94,1.04,.63,1.56,1.48,.78,2.63-.47,.7-.04,1.3,.03,1.95-.16,1.09-.91,1.22-1.8,1.11-.56-.11-.91-.56-1.34-.87-.29-.2-.52-.52-.95-.43-.89,.64-1.52,1.52-2.19,2.34-.91,1.12-1.96,1.88-3.44,2.05-1.38,.16-2.52,.56-2.36,2.39,.1,1.2-.93,1.68-1.91,1.98-2.79,.85-4.77,2.75-6.33,5.05-2.66,3.95-6.28,7.06-9.28,10.73-1.48,1.81-3.84,2.72-6.08,3.56-.64,.24-1.36,.37-1.73,1.04-1.51,2.7-4.08,4.53-5.78,7.08-.08,.13-.17,.28-.3,.35-4.46,2.31-6.87,6.81-10.55,9.93-3.94,3.34-7.64,6.98-12.2,9.56-1.67,.94-3.15,2.2-3.28,4.4-.04,.62-.4,1.21-1.03,1.41-3.16,1.01-4.47,3.87-6.25,6.24-.47,.63-.91,1.27-1.66,1.49-3.76,1.1-6,4.16-8.27,6.9-2.13,2.57-4.36,5.18-7.19,6.62-2.64,1.34-4.55,2.68-5.63,5.48-.46,1.19-2.13,1.66-3.19,2.54-1.17,.97-2.39,1.94-3.25,3.22-.96,1.43-2.26,2.26-3.94,2.49-.87,.12-1.61,.4-2.33,1.31,1.29,.13,1.53,2.02,3.17,1.38,.26-.1,.75,.22,.8,.67,.05,.47-.34,.7-.68,.79-.74,.18-1.43,.56-2.21,.6-2.94,.06-5.88,.01-8.81,.03-2.28,.77-3.31-.83-4.33-2.34-.7-1.03,.1-1.66,.76-2.32,2.82-2.84,6-5.28,8.86-8.07,.55-.54,1.17-.97,1.27-1.79,5.09-4.9,10.33-9.64,15.69-14.26,1.27,0,2.2-.82,2.85-1.66,2.16-2.82,4.98-4.86,7.78-6.93,.73-.54,.96-1.08,.94-1.87,6.14-5.8,12.36-11.51,18.78-17.01,4.2-2.48,8.17-5.21,10.6-9.63,3.78-3.69,7.69-7.24,11.73-10.64,2.86-1.89,5.66-3.85,7.54-6.82,5.34-4.9,10.68-9.79,16.01-14.69,.33-.31,.64-.65,.95-.97,.43-.84,1.04-1.48,1.97-1.76Z"/><path class="el" d="M47.28,164.15l-1.73,2.09c.55,.71,1.3,.41,1.92,.41,9.41,.02,18.82,.08,28.23-.05,2.17-.03,2.83,.48,2.83,2.75-.07,53.49-.06,106.98-.04,160.46,0,3.39-.57,2.95,3.06,2.99,4.05,.05,8.11-.23,12.13,.52,.09,.3,0,.54-.26,.71-1.06,.52-2.21,.24-3.32,.34-3.54,.47-7.09,.19-10.63,.2-.77,0-1.49-.23-2.07-.79-.78-1.27-.46-2.69-.46-4.04-.02-52.27-.01-104.55-.03-156.82,0-1.24,.44-2.63-.72-3.66-1.08-.72-2.29-.71-3.52-.71-8.44,0-16.88,.01-25.32,0-1.21,0-2.43,.05-3.64-.18-1.21-.55-.96-1.45-.4-2.24,.83-1.17,1.72-2.33,3.26-2.65,.4,.04,.73,.16,.7,.66Z"/><path class="cv" d="M229.64,312.09c-27.14-.37-52.29,7.4-76.54,18.78-1.92,.9-2.44,.62-2.95-1.38-1.57-6.25-2.95-12.51-2.5-19.01,.74-10.74,5.73-19.16,14.16-25.66,7.24-5.59,15.46-9.18,24.21-11.65,.5-.14,1.05-.12,1.58-.17,.77-.25,1.55-.2,2.34-.15,.47,1.68-1.18,1.11-1.77,1.68-1.67,.31-3.33,.67-4.94,1.23-.19,.1-.4,.17-.61,.22-.75,.07-1.37,.47-2,.82-.19,.09-.39,.18-.58,.27-2.46,.77-4.81,1.79-7.12,2.91-3.28,1.73-6.53,3.52-9.45,5.84-1.79,1.56-3.96,2.67-5.38,4.66-1.17,1.65-2.73,3-3.69,4.82-2.39,3.89-4.12,8.03-4.54,12.63-.61,3.67-.57,7.35-.02,11.01,.32,2.71,.84,5.39,1.56,8.03q.63,2.29,2.7,1.34c.69-.32,1.35-.69,2.11-.84,1.86-.97,3.87-1.59,5.71-2.59,.96-.31,1.83-.85,2.83-1.05,2.46-.83,4.74-2.11,7.23-2.87,2.52-.84,5.01-1.75,7.52-2.6,2.15-.68,4.24-1.53,6.48-1.89,3.78-.89,7.42-2.32,11.3-2.8,1.8-.69,3.75-.73,5.6-1.23,.93-.17,1.9-.05,2.79-.47,.48-.1,.96-.1,1.44-.12,.88,.03,1.64-.57,2.53-.45,2.33,.3,4.5-.96,6.83-.67,.75,.08,1.5,.06,2.23-.19,.66-.12,1.32-.11,1.96,.13,2.03,.49,4.1,.17,6.16,.27,.9,.04,1.84-.15,2.67,.41,.24,.21,.28,.45,.14,.73Z"/><path class="eu" d="M190.16,273.07c-.85-.02-1.7-.04-2.55-.06,5.47-1.69,11.1-1.9,16.75-1.83,20.36,.27,39.15,6.58,57.38,15,6.87,3.17,13.43,6.9,20.03,10.59,9.98,5.58,20.69,9.35,31.84,11.87-.46,.98-1.14,.45-1.77,.25-3.66-.39-7.18-1.28-10.56-2.74-2.89,.8-5.15-.83-7.55-1.93-.17-.11-.35-.22-.53-.32-.68-.41-1.44-.64-2.2-.86-.47-.17-.92-.39-1.4-.54-.45-.27-.98-.34-1.46-.53-3.07-1.41-6-3.1-9.06-4.55-2.37-1.71-4.88-3.18-7.51-4.46-2.18-1.02-4.34-2.08-6.46-3.2-3.02-1.38-6.03-2.78-9.04-4.17-2.25-1.01-4.55-1.92-6.85-2.83-2.62-1.05-5.25-2.08-7.91-3.05-3.1-.72-5.99-2.1-9.11-2.74-1.66-.2-3.17-1.13-4.9-.98-1.91-.36-3.75-1.05-5.68-1.32-3.06-.32-6.09-.84-9.13-1.31-2.42-.02-4.81-.35-7.22-.47-4.09,.44-8.25-.29-12.29,.87-1.02,.12-2.03,.17-2.81-.7Z"/><path class="q" d="M312.77,167.04h31.6c-1.09-1.03-1.69-1.64-2.34-2.21-20.97-18.6-41.95-37.2-62.92-55.81-.45-.4-.85-.87-1.27-1.3,.2-.31,.5-.45,.84-.52,.92-.08,1.62,.39,2.25,.97,8.45,7.76,17.18,15.2,25.7,22.88,.58,.76,1.22,1.46,2.1,1.89,7.44,6.56,14.84,13.16,22.27,19.72,4.57,4.04,9.14,8.09,13.67,12.17,.84,.76,2.21,1.57,.54,2.88-.7,.42-1.47,.38-2.23,.38-9.31,.02-18.61,.01-27.92,0-.68,0-1.38,.04-2.01-.31-.28-.18-.38-.43-.3-.75Z"/><path class="aq" d="M210.72,323.53c6.54-1.25,13.17-1.67,19.81-1.8,16.53-.33,32.74,1.87,48.64,6.37,.29,.08,.61,.07,.91,.11q.95,.25,.96-.44c-4.54-3.27-9.61-5.53-14.67-7.81-.76-.34-1.52-.69-2.28-1.04-.28-.31-.26-.63-.06-.97,1.17-.69,2.21-.07,3.22,.39,1.31,.59,2.66,1.1,3.92,1.78,2.16,1.07,4.32,2.13,6.41,3.34,3.35,1.77,6.56,3.77,9.64,5.97,.78,.56,1.76,.96,1.83,2.14-.18,.51-.6,.68-1.08,.75-2.62-.11-4.84-1.66-7.38-2.09-.83,.02-1.58-.27-2.35-.51-.65-.21-1.28-.47-1.96-.54-1.65-.07-3.14-.72-4.66-1.25-2.43-.27-4.77-1.02-7.18-1.4-2.61-.45-5.17-1.21-7.84-1.35-2.75-.1-5.43-.77-8.17-.94-2.11-.12-4.21-.41-6.32-.4-1.34-.03-2.66-.31-3.99-.47-3.46-.31-6.91,.39-10.37,.07-2.46-.9-4.89,.03-7.33,.18-.47,.16-.92,.37-1.39,.53-.5,.11-1.01,.1-1.52,.13-.79,.14-1.58,.27-2.39,.13-1.42-.49-3.13,.45-4.38-.87Z"/><path class="cr" d="M210.72,323.53c1.57,.02,3.14,.03,4.71,.05-.93,2.09-2.96,1.13-4.47,1.6-4.06,.88-8.24,1.12-12.25,2.28-1.79,.19-3.51,.71-5.19,1.33-1.97,.75-4.12,.9-6.05,1.78-3.65,1.05-7.25,2.27-10.8,3.63-1.38,.75-2.95,1.05-4.31,1.84-2.14,.85-4.24,1.79-6.33,2.76-2.74,1.36-5.52,2.62-8.18,4.15-.96,.59-2.07,.89-3.02,1.51-2.3,1.73-4.64,.78-6.97,.09-2.18-.23-4.09-1.34-6.19-1.85-2.75-.5-5.38-1.48-8.15-1.92-3.14-.28-6.13-1.28-9.22-1.79-1.09-.02-2.17-.09-2.7-1.28,.52-1.01,1.33-.56,2.07-.41,9.16,1.6,18.36,3.07,27.14,6.32,1.4,.52,2.36-.38,3.39-.93,9.88-5.21,20.01-9.83,30.67-13.22,8.45-2.69,16.99-4.98,25.84-5.94Z"/><path class="i" d="M219.48,262.52c-1.71,.16-3.36-.27-5.01-.57-.75-.37-1.63,.09-2.37-.34-8.02-.49-16.04-.59-23.88,1.39-12.25,3.1-23.46,8.19-31.95,18-1.09,1.26-2.03,2.66-3.03,4-.79,.4-1.31,.17-1.56-.67-.13-.45-.1-.91-.1-1.36,.02-15.94-.07-31.87,.05-47.81,.04-.3,.17-.55,.37-.77,.49-.17,.83,.07,1.11,.43,.26,.69,.27,1.4,.16,2.12-.22,6.35-.14,12.7,.17,19.04-.44,3.06-.31,6.12-.12,9.19-.5,5.71,.32,11.42-.07,17.05,3.61-5.42,8.63-9.41,14.21-12.75,5.73-3.43,11.88-5.87,18.31-7.65,7.57-2.58,15.39-1.83,23.16-1.85,2.98-.15,5.91,.41,8.85,.76,.84,.1,1.65,.34,2.19,1.08,.19,.47,.17,.8-.48,.72Z"/><path class="bv" d="M153.84,69.99c-8.12,7.3-16.22,14.62-24.36,21.89-10.71,9.56-21.45,19.08-32.18,28.61-.56,.5-1.18,.94-1.78,1.41-.5-.16-.69-.51-.63-1.02,1.48-2.68,4.13-4.23,6.3-6.2,4.21-3.84,8.48-7.64,12.77-11.39,.72-.39,1.39-.84,1.77-1.61,2.06-2.05,4.48-3.71,6.54-5.77,.71-.4,1.37-.85,1.85-1.53,1.66-1.84,3.75-3.2,5.46-5,1.3-1.05,2.79-1.86,3.73-3.31,5.99-5.4,12.07-10.71,18.07-16.1,.69-.62,1.4-1.52,2.58-.88,.19,.34,.14,.64-.13,.91Z"/><path class="p" d="M47.28,164.15l-.61-.47c-.06-1.44,1.1-2.11,1.92-2.96,8.61-8.76,17.49-17.26,25.94-26.19,.16-.2,.29-.41,.38-.65,.27-1.06,.17-2.14,.17-3.2,0-14.43,0-28.86,.01-43.29,0-1.13-.18-2.3,.3-3.39,.53-.72,1.21-.78,1.98-.45,.29,.18,.37,.42,.24,.74-1.7,0-1.37,1.25-1.37,2.27,0,15.36-.04,30.71,.04,46.07,.01,2.01-.6,3.37-2.02,4.76-8.65,8.52-17.2,17.14-25.79,25.72-.37,.37-.8,.69-1.2,1.04Z"/><path class="bs" d="M311.84,308.89c.59-.08,1.18-.16,1.77-.25,3.08,.35,6.08,1.32,9.23,1.21,5.53,.96,11.09,.73,16.63,.19,9.18-.9,17.65-3.98,25.62-8.51l.96,.02c1.14,1.05,0,1.34-.61,1.79-4,2.95-8.63,4.61-13.28,6.03-8.51,2.61-17.27,3.67-26.19,2.99-.91-.44-1.91-.1-2.85-.29-1.59-.85-3.3-.66-5-.64-1.87-.26-3.77-.45-5.36-1.62l-.93-.91Z"/><path class="co" d="M213.58,50.7c-5.79-5.08-11.64-10.1-17.33-15.29-1.43-1.3-2.2-1.11-3.49,.06-7.09,6.37-14.27,12.66-21.41,18.98-.28,.25-.59,.28-.93,.11-.51-1.22,.42-1.89,1.11-2.5,7.01-6.24,14.01-12.49,21.01-18.74,1.4-1.25,2.67-1.12,4.05,.08,5.24,4.56,10.41,9.19,15.61,13.8,.79,.7,1.61,1.43,1.78,2.59,0,.36-.11,.68-.39,.92Z"/><path class="bb" d="M152.49,234.47c-.15,0-.3,0-.46,0-.44-.2-.58-.67-.89-.99-.31-.22-.65-.35-1.04-.37-10.6,.02-21.2-.13-31.79,.08-.41,.14-.82,.17-1.22,0-.28-.37-.27-.77-.08-1.17,5.08-4.85,10.26-9.58,15.61-14.13,.36,2.59-1.96,3.26-3.34,4.57-2.24,2.14-4.56,4.19-6.84,6.29-.16,.15-.35,.36-.37,.56-.04,.36,.25,.54,.57,.58,1.24,.15,.63,3.05,2.76,1.84,3.18,.52,6.42,.44,9.58,.14,4.89-.46,9.77-.26,14.65-.37,.4,0,.81,0,1.21,0,.51,.02,1.03,.02,1.5,.26,.8,.57,1.06,1.31,.67,2.24-.13,.21-.3,.37-.52,.47Z"/><path class="db" d="M219.48,262.52l.51-.5c1.13-1.22,2.39-.4,3.6-.24,2.08,.04,4.02,.79,6.03,1.19,.45,.13,.9,.26,1.37,.32,.64,.29,1.34,.37,2.02,.51,4.17,1.17,8.36,2.31,12.37,3.97,8.22,2.94,16.2,6.42,23.94,10.47,.89,.47,2.09,.74,2.12,2.11v.83c-8.9-4.42-17.85-8.7-27.25-11.98-7.8-2.72-15.71-5.01-23.88-6.33-.29-.05-.56-.23-.83-.35Z"/><path class="cu" d="M245.71,130.68c-.71-.58-2.92-.86-.31-2.05,.96-.44,.41-1.2-.28-1.51-1.81-.8-3.11-2.12-3.99-3.83-.52-1.01-.94-.13-1.42-.12-1.11,.03-1.91,1.9-3.23,.53,3.19-3.34,3.25-3.41,6.57-.36,7.74,7.12,15.81,13.88,23.3,21.28,.21,.21,.37,.47,.56,.71-.17,.01-.35,.02-.52,.03-.55,.33-1.06,.17-1.56-.12-2.13-1.84-3.98-4.02-6.45-5.46-1.26-1.37-2.55-2.71-4.02-3.85-.17-.12-.33-.26-.47-.41-.79-.67-1.43-1.48-2.23-2.13-.38-.26-.74-.54-1.1-.82-1.42-1.11-2.72-2.53-4.83-1.91Z"/><path class="co" d="M278.92,107.65l-1.07,.07c-7.91-6.97-15.83-13.92-23.72-20.9-4.05-3.58-8.05-7.23-12.07-10.85-.1-.41,.15-.6,.47-.75,1.25-.23,1.94,.66,2.72,1.36,3.91,3.48,7.78,7.01,11.77,10.41,.61,.73,1.25,1.45,2.06,1.97,6.16,5.27,12.08,10.81,18.24,16.07,.78,.67,1.73,1.35,1.59,2.62Z"/><path class="cs" d="M77.62,84.29c0-.15,0-.3,0-.44,.47-.63,1.17-.67,1.86-.68,4.66-.04,9.33-.04,13.99,0,.61,0,1.23,.06,1.73,.48,.74,.79,.79,1.79,.79,2.79,.03,10.4,0,20.8,.02,31.2,0,1.19-.31,2.26-.89,3.27,.13,.33,.26,.66,.39,.98-.25,.38-.56,.92-1.01,.72-.59-.26-.3-.96-.3-1.45-.02-9.25-.01-18.51-.02-27.76,0-2.37-.1-4.75,.03-7.11,.09-1.56-.47-1.95-1.94-1.94-4.89,.04-9.78-.04-14.67-.08Z"/><path class="e" d="M242.66,75.49l-.59,.48c-8.61-7.59-17.23-15.18-25.84-22.78-.91-.8-1.77-1.66-2.65-2.49l.04-1.01c1.15-.3,1.88,.44,2.61,1.1,8.05,7.15,16.09,14.32,24.16,21.44,.99,.87,2.28,1.63,2.27,3.25Z"/><path class="c`" d="M264.09,318.06v.87c-8.37-2.98-16.9-5.27-25.77-6.13-2.89-.28-5.78-.48-8.68-.71,0-.15,0-.3,0-.46,.89-1.05,2.09-.55,3.17-.65,.69,.08,1.39,.13,2.08-.06,1.28,.01,2.55,.04,3.83,.07,.23,0,.45,.04,.67,.08,.84,.3,1.7,.42,2.58,.37,.22,.01,.44,.05,.66,.11,.72,.37,1.51,.32,2.29,.36,.23,.02,.46,.08,.68,.15,3.46,.34,6.75,1.47,10.13,2.17,2.21,.83,4.57,1.19,6.69,2.27,.65,.42,1.75,.37,1.66,1.57Z"/><path class="ef" d="M151.54,284.99c0-16.22,.02-32.45,.03-48.67,0-.92,.05-1.83,.07-2.75,.13,.3,.26,.6,.39,.9,0,16.03-.01,32.05,.01,48.08,0,.95-.54,2.29,1.19,2.46-.57,.6-1.13,.37-1.7-.02Z"/><path class="da" d="M159.87,193.15c.4,.46,.86,.87,1.16,1.38,.22,.38,.23,.88-.41,1.05-3.75,1.01-6.2,3.71-8.55,6.55-.98,1.18-1.93,2.49-3.78,1.49,1.08-1.06,2.16-2.12,3.23-3.19,1.03-1.47,2.17-2.8,3.86-3.55,1.49-1.24,2.98-2.49,4.48-3.73Z"/><path class="en" d="M189.26,166.52c.66,.74,.38,1.34-.2,1.99-1.41,1.59-2.48,3.76-4.22,4.7-1.79,.96-3.36,2.1-4.96,3.28-.38,.28-.88,.04-1.22-.33,3.41-3.35,6.94-6.57,10.6-9.63Z"/><path class="fa" d="M170.24,54.36l1.1,.08c-5.72,5.31-11.51,10.53-17.5,15.55l-.02-.97c-.17-1.38,.89-2.06,1.71-2.79,4.14-3.63,8.26-7.28,12.33-10.99,.65-.59,1.28-1.4,2.38-.88Z"/><path class="ba" d="M123.68,337.31c-.66,.11-1.4-.1-1.96,.45-1,1.26-2.23,.23-3.35,.35-4.65-.6-9.37-.81-13.91-2.18-.36-.26-.49-.61-.4-1.05,.07-.11,.15-.22,.22-.33,1.52,.18,3.04,.36,4.56,.53,.79,.45,1.72,0,2.52,.37,4.15,.3,8.25,.93,12.3,1.85Z"/><path class="fg" d="M312.77,167.04c0,.14,0,.28,.02,.42,.18,.19,.34,.39,.47,.62,.1,.24,.17,.49,.22,.74,.51,3.57-.15,7.19,.54,10.76-.1,.4-.24,.77-.77,.71-.87-.43-1.43-.99-1.42-2.09,.05-3.35,.02-6.7,.02-10.05,0-.62-.05-1.29,.92-1.1Z"/><path class="du" d="M208.52,149.05c.58,.6,.59,1.27-.01,1.79-2.05,1.78-4.14,3.52-6.24,5.24-.4,.32-.86-.09-1.28-.21,2.38-2.42,4.9-4.69,7.54-6.82Z"/><path class="dw" d="M313.25,180.28l.48-.55c.73-.3,1.37,0,1.9,.44,2.2,1.87,4.46,3.65,6.59,5.6,.54,.49,1.11,1.1,.64,1.98-.34,.17-.66,.13-.96-.1-3.02-2.29-5.92-4.74-8.65-7.37Z"/><path class="m" d="M321.9,187.65c.37-.03,.74-.05,1.11-.08,.19-.14,.46-.29,.62-.19,2.32,1.48,4.87,2.74,5.81,5.64-.37,.04-.73,.09-1.1,.13-2.25-1.71-4.44-3.5-6.44-5.5Z"/><path class="bc" d="M232.83,127c.2,.1,.58,.21,.57,.29-.13,1.46-2.71,3.28-4.19,3.01,1.21-1.1,2.41-2.19,3.62-3.29Z"/><path class="ei" d="M93.68,333.69c0-.12,0-.24,0-.36,1.42-.27,2.77,.27,4.15,.41,.61,.47,1.72-.31,2.07,.82,0,.25-.07,.47-.23,.66-.3,.22-.64,.32-1.01,.35-1.27-.12-2.59,0-3.8-.55-.18-.12-.32-.28-.41-.47,.6-1.06-.87-.25-.78-.85Z"/><path class="bd" d="M99.68,334.6c-.61-.29-1.22-.57-1.83-.86,2.17,.12,4.33,.26,6.44,.8-.03,.07-.06,.14-.11,.21-1.53,.75-3.03,.85-4.5-.15Z"/><path class="ff" d="M117.14,233.05l-.94,.11c-.34-.8,.37-.88,.8-1.15,.05,.35,.09,.69,.14,1.04Z"/><path class="aj" d="M212.1,261.61c.81-.03,1.65-.25,2.37,.34-.81,.04-1.63,.09-2.37-.34Z"/><path class="bd" d="M111.37,335.45c-.86,.03-1.76,.27-2.52-.37,.87-.07,1.72-.02,2.52,.37Z"/><path class="dx" d="M287.97,331.85l.92-.47c.24-1.1-.33-1.71-1.27-2.12-.84-.36-1.65-.77-2.16-1.61-.92-1.5-.66-2.38,1.09-2.73,1.23-.24,1.43-.93,1.45-1.92,.09-4.35-.04-8.69,.09-13.04,.03-.87-.45-1.61-.63-2.42-.46-2.13-.76-4.24,.97-6.02,.51,0,1.03,0,1.38,.47,1.07,.86,2.01,2.08,3.67,1.38,2.49,1.23,5.1,2.13,7.8,2.77-.17,.7-1.09,1.51,.29,1.98,.4,.13,.47,.46,.14,.63-1.48,.8-.86,2.18-.86,3.29-.04,20.41-.03,40.82-.03,61.22,0,1.26,.34,2.71-1.77,3.11,1.44,.35,3.11,.36,1.78,2.31-2.16,1.27-4.43,2.24-6.88,2.76-1.7,.57-3.55,.71-5.06,1.83-.81,.62-1.68,1.08-2.75,.93-.14-2.69,1.69-5.84,3.76-6.39-1.2-1.07-1.45-2.47-1.44-3.96,.08-12.84-.28-25.67,.23-38.5,.05-1.31-.88-2.26-.71-3.5Z"/><path class="dm" d="M312.77,309.8c1.97-.5,3.65,.75,5.51,.92,1.58,.88,3.48,.02,5.06,.91,.77,.03,1.53-.86,2.3,0-.23,1.72-1.84,1.68-2.92,2.32-1.65-.03-3.33,.17-4.44-.34,2.38-.5,4.59,1.67,7.29,1.96,1.12,.3,1.55,1.03,1.05,2.06-.64,1.31-.53,2.68-.53,4.04-.01,11.45,0,22.91,0,34.36,0,1.6-.1,3.2,.6,4.73,.48,1.04-.11,1.87-.7,2.73-.62,.9-1.86,1.19-2.18,2.34-2,1.71-3.95,3.5-6.37,4.64-.8,.38-1.67,.74-1.93,1.75-2.12-.58-3.25,1.51-5.03,1.87-.16-.96-.62-1.95,.69-2.59,.67-.33,.91-1.15,.45-1.79-.89-1.25-.67-2.62-.67-3.98,0-17.79,0-35.59,0-53.39,0-1.3-.26-2.77,1.84-2.55Z"/><path class="di" d="M94.69,334.54c1.38,.15,2.81-.17,4.13,.46,1.33,.47,2.67-.17,4,.06,.51,0,1.01,.06,1.42,.41,4.75,.65,9.5,1.3,14.25,1.96,1.6,.92,2.23,2.35,2.24,4.15,.01,2.19,.02,4.37-.32,6.54-.14,.85-.34,1.62-1.14,2.09-.65,.41-1.41,.12-2.09,.32-1,.47-1.85-.58-2.83-.28-.43,.32-.85,.37-1.23-.08-2.68-.73-5.46-.6-8.18-.72-12.88-.6-25.63,.44-38.19,3.5-1.53,.37-2.98,1.17-4.63,1-1.12,.45-1.35-.3-1.45-1.12-.1-.83-.04-1.68-.04-2.52,0-54.38,0-108.76,0-163.14,0-1.15,.06-2.29-.07-3.44-.14-.42-.34-.8-.78-.98-4.2-.33-8.42,0-12.61-.55-9.98-.04-19.96-.09-29.94-.13-.99,0-1.98,.04-2.97,.07-3.77-.59-7.59-.14-11.66-.56,1.27-1.68,2.74-2.86,4.08-4.17,9.77-9.55,19.52-19.12,29.27-28.69,.16-.16,.27-.37,.4-.55,6.15-5.94,12.31-11.88,18.45-17.84,1.53-1.49,3-3.05,4.49-4.57,.22-.72,.73-1.17,1.4-1.47,.71-.96,.36-2.07,.36-3.1,.03-17.2,.02-34.39,.02-51.59,0-.76,.04-1.53,.07-2.29,.5-.98,1.25-1.39,2.39-1.39,14.84,.02,29.68,.02,44.52,0,1.47,0,2.03,.49,1.99,2.01-.09,3.29-.06,6.58,0,9.87,.01,.65-.53,1.57,.58,1.93,7.07-6.62,14.14-13.23,21.2-19.85,5.02-4.48,10.02-8.97,14.69-13.82,4.56-3.56,8.57-7.74,12.82-11.65,5.61-5.15,11.09-10.44,16.63-15.67,5.56-5.09,11.17-10.13,16.65-15.31,1.39-1.32,2.23-1.7,3.77-.13,2.5,2.55,5.3,4.8,7.98,7.18,5.91,5.48,11.81,10.96,17.71,16.45,.89,.83,1.72,1.71,2.59,2.56,1.49,1.8,3.08,3.49,5.12,4.69,4.31,3.88,8.64,7.72,12.91,11.64,18.48,16.98,36.94,33.98,55.4,50.97,.52,.68,1.11,1.29,1.85,1.74,2.14,1.98,4.29,3.96,6.43,5.94,.32,.63,.73,1.16,1.46,1.35,2.13,1.64,4.07,3.5,5.92,5.44,.83,1.22,2.05,2,3.18,2.89,13.9,12.73,27.8,25.45,41.7,38.18,9.97,9.13,19.95,18.26,29.91,27.39,.5,.46,.93,1,1.4,1.5,.42,.97-.19,1.22-.96,1.31-.76,.09-1.52,.04-2.29,.04-17.7,0-35.4,0-53.1,0-.99,0-1.98-.12-2.96,.17-.92,.44-.59,1.29-.63,1.99-.13,2.48,.21,4.97-.19,7.45l-.37,.84c-1.99-2-4.14-3.81-6.43-5.46-2.96-2.77-6-5.45-9.28-7.84-.63-.69-1.01-1.43-.98-2.45,.1-2.98,.08-5.96,.1-8.94,.86-.73,1.9-.45,2.86-.45,8.87-.02,17.73,0,26.6-.02,.91,0,1.84,.1,2.73-.14,.36-.14,.64-.36,.76-.75-5.66-5.08-11.32-10.17-16.99-15.24-6.87-6.14-13.75-12.27-20.62-18.4-.4-.84-1.04-1.41-1.91-1.73-8.18-7.22-16.36-14.45-24.55-21.66-.91-.8-1.67-1.79-2.82-2.3-5.09-4.58-10.19-9.15-15.27-13.74-1.69-1.52-3.36-3.07-5.05-4.61-.41-.86-1.03-1.49-1.96-1.77-3.95-3.45-7.89-6.91-11.85-10.36-.68-.59-1.42-1.13-2.13-1.69-6.8-6.11-13.59-12.23-20.41-18.32-2.84-2.53-5.75-4.99-8.63-7.48-6.02-5.41-12.05-10.82-18.06-16.24-.79-.71-1.37-.64-2.15,.06-7.71,6.97-15.45,13.91-23.18,20.85-5.61,4.73-11.12,9.57-16.42,14.66-6.24,5.48-12.48,10.95-18.73,16.43-.46,.4-.95,.77-1.42,1.15-1.43,.86-2.82,1.77-3.67,3.27-1.84,1.66-3.69,3.32-5.53,4.98-.7,.39-1.38,.81-1.78,1.54-2,2.15-4.35,3.89-6.57,5.79-.58,.49-1.42,.7-1.68,1.53-6.29,5.89-12.76,11.59-19.3,17.21-.02-11.44-.04-22.88-.07-34.32,0-.91-.04-1.83-.06-2.74-.19-.19-.42-.33-.68-.41-5.68-.17-11.36-.04-17.04-.06-.8,0-1.75-.17-1.93,1.04-.08,15.89,0,31.77-.05,47.65,0,1.04,.32,2.15-.47,3.08-8.77,8.84-17.53,17.67-26.29,26.51-.64,.65-1.25,1.34-1.87,2.01-1.19,1.34-3.16,2.04-3.37,4.17,1.23,.47,2.51,.24,3.76,.25,9.15,.03,18.3,0,27.46,.03,.8,0,1.68-.31,2.41,.34,.42,1.11,.22,2.27,.22,3.41,.01,52.52,0,105.04,.01,157.56,0,1.15-.05,2.29,.06,3.44,.08,.29,.21,.56,.4,.8l12.75,.05c.16,.06,.3,.15,.43,.27,1.26,.44,2.69-.3,3.89,.54Z"/><path class="dj" d="M329.81,192.19c.13-3.22-.69-6.48,.44-9.65,.65-.32,1.35-.18,2.03-.18,19.3-.07,38.61,.12,57.91-.11,.41,0,.74,.14,1.07,.34,.05,.81-.61,.25-.87,.46-19.24,0-38.49,.02-57.73-.07-2.12,0-2.55,.74-2.53,2.65,.03,2.18,.46,4.41-.32,6.56Z"/><path class="eb" d="M391.26,182.59c-20.34-.02-40.67-.03-61.01-.05,.88-.7,1.91-.4,2.87-.4,18.02-.02,36.03,0,54.05-.04,.94,0,2.22,.63,2.75-.87,.59,.32,1.09,.71,1.34,1.36Z"/><path class="s" d="M229.76,34.18c-2.43-.78-4.38-2.07-5.12-4.69,1.95,1.29,3.53,3,5.12,4.69Z"/><path class="t" d="M316.91,114.15c-1.56-.41-2.84-1.13-3.18-2.89,1.23,.77,2.31,1.72,3.18,2.89Z"/><path class="ew" d="M299.93,98.53c-1.06-.11-1.65-.72-1.85-1.74,.78,.4,1.37,1.01,1.85,1.74Z"/><path class="f" d="M307.82,105.82c-1.04,.15-1.54-.28-1.46-1.35,.49,.45,.98,.9,1.46,1.35Z"/><path class="bj" d="M227.35,322.66c3.67,.01,7.34,.03,11.01,.04,.11,2.28-1.75,1.37-2.93,1.79,.69,1.16,.65,2.46,.65,3.75,0,17.18,0,34.36,0,51.54,0,1.7-.1,3.36-1.03,4.86-.34,.55-.34,1.12-.25,1.75,.37,2.69-.12,3.19-2.89,3.07-.31-.01-.59-.14-.89-.19-2.19,.04-4.35-.13-6.43-.9-1.15-.83-1.84-1.73-.36-2.89,.18-.14,.42-.39,.21-.52-1.91-1.27-.34-2.09,.32-3.1,.43-.66,.28-1.49,.28-2.25,.02-17.67-.06-35.35,.09-53.02,.01-1.58-1.38-2.1-1.57-3.37,1.19-.63,2.46-.8,3.78-.56Z"/><path class="bq" d="M256.74,324.5c2.65,.18,5.26,.6,7.81,1.38,.27,.92-.08,1.44-.99,1.64,.27,.13,.59,.05,.9-.03,1.1-.26,2.28-.3,2.88,.76,.63,1.13-.44,1.81-1.19,2.41-.73,.58-.78,1.26-.59,2.04,.43,1.81,.37,3.64,.36,5.47-.04,14.36,.08,28.73-.07,43.09-.01,.96,.02,1.77,1.09,2.25,1.33,.6,1.27,1.52,.11,2.39,1.32,.6,3.06,.41,2.99,2.41-4.26,.78-8.53,1.43-12.85,1.83-.85-1.23-.89-2.42,.21-3.52,.74-.74,.58-1.27-.24-1.82-1.14-.77-1.34-1.99-1.34-3.25-.02-16.43-.06-32.87,.03-49.3,.01-1.95,.75-3.87,.26-5.88-.16-.67,.12-1.36,.62-1.9Z"/><path class="dl" d="M270.05,388.32c-.66-.61-1.16-1.45-2.25-1.35-1.18,.1-2.86,.57-3-1.04-.13-1.56,1.87-.23,2.54-1.19,0-.04-.03-.3-.05-.3-3.49,.15-2.3-2.26-2.29-4.09,.03-11.84,.1-23.68-.03-35.52-.05-4.47,.79-9.01-.75-13.41-.28-.79,.12-1.22,.98-1.44,1.03-.27,1-.37,1.8-1.57-1.55-.43-3.21-.1-4.98-1.07,1.35,0,2.2-.38,2.53-1.46,2.54,0,4.89,.97,7.35,1.39,3.41,2.05,2.58,5.56,2.67,8.56,.22,6.96,.07,13.93,.07,20.89,0,7.65,.16,15.31-.09,22.96-.08,2.57,.4,4.9,1.03,7.29-.36,.46-.88,.45-1.39,.45-.84,.63-1.92-.21-2.75,.47-.36,.46-.88,.45-1.39,.44Z"/><path class="er" d="M256.74,324.5c.22,1.31-.1,2.71,.8,3.92,.19,.26,.08,.99-.16,1.28-.71,.87-.64,1.84-.64,2.83,0,16.36,0,32.73,0,49.09,0,1.32-.18,2.52,1.78,2.8,.98,.14,2.05,1.45,.54,2.29-1.27,.7-2.24,1.01-1.18,2.59,.06,.09-.43,.56-.67,.85-2.96,.16-5.93-.25-8.88,.41-.84,.19-1.83,.31-2.62-.39,2.48-1.49,2.8-3.78,2.79-6.46-.08-18.33-.07-36.65,0-54.98,0-1.72-.74-3.45-.02-5.17,2.79-.04,5.53,.4,8.27,.92Z"/><path class="b`" d="M231.01,389.26c.43-.36,.88-.01,1.32-.04,2.12-.15,2.57-.98,1.36-2.76-.47-.69-.7-1.16,.01-1.72,1.47-1.13,1.46-2.71,1.46-4.35-.02-17.51-.04-35.01,.02-52.52,0-2.09,.09-3.94-3.4-3.41,1.58-1.3,2.87-.7,4.02-.9,.89-.15,2.07,.51,2.55-.87,1.26-.15,2.48,.06,3.69,.41,1.29,.25,2.05,.79,1.59,2.32-.35,1.17-.19,2.43-.19,3.65,0,18.69,0,37.39,0,56.08q0,3.76-3.25,5c-3.1,.07-6.16-.23-9.18-.89Z"/><path class="ak" d="M210.81,324.51c1.46-.72,3.18-.09,4.62-.92,.76,0,1.51,0,2.27,0,1.83,.02,2.35,.96,2.35,2.73-.06,18.01-.02,36.01-.04,54.02,0,1.42-.28,2.8,.27,4.27,.61,1.65-.84,2.55-3.51,2.35-2.52-.37-5.06-.61-7.37-1.83-.13-.97,.32-1.52,1.27-1.42,2,.2,1.76-1.14,1.76-2.38,0-12.78,0-25.57,0-38.35,0-2.3,0-4.59,0-6.89,0,14.84,0,29.67,0,44.51,0,.61,0,1.22,0,1.84-.01,.49-.12,.91-.67,1.05-.61,.15-1.04-.13-1.35-.62-.47-.75-.51-1.59-.51-2.44-.02-16.46-.02-32.91,0-49.37,0-1.32,.12-2.6,1.56-3.31-.76-.42-1.93,.27-2.18-.92-.26-1.23,.81-1.69,1.54-2.33Z"/><path class="fd" d="M240.2,390.16c-.08-.29-.21-.77,.11-.78,2.29-.08,2.26-1.41,2.25-3.27-.09-19.94-.04-39.88-.1-59.81,0-1.03,1.6-2.39-.41-3.18,2.14,.17,4.34-.41,6.43,.46,.73,1.19,.95,2.47,.95,3.89-.04,19.24-.03,38.48-.03,57.72,0,.53,.06,1.08-.02,1.6-.43,3.14-1.31,3.76-3.67,3.4-1.83,0-3.67-.01-5.5-.02Z"/><path class="bt" d="M275.58,386.96c-.77-.14-1.83,.4-2.18-.72-.33-1.05,.87-1.01,1.52-1.53-.96-.93-2.2-.15-3.33-.95,2.74-.45,2.14-2.43,2.14-4.11,.01-14.76,0-29.52,0-44.28,0-1.14,.14-2.31-.67-3.29-.14-.17-.36-.53-.34-.54,2.23-1.81,.04-2.05-.92-2.83-.32-.26,.53-.91,.1-1.44,1.53,.45,3.06,.91,4.59,1.36,.56,.37,1.11,.76,1.84,.46l2.29,.46c.48,.41,1.86,4.34,1.85,5.18-.03,5.66-.03,11.31,0,16.97,.05,10.09-.14,20.18,.1,30.27,.03,1.18-.35,2.07-1.45,2.62-.83,.41-1.59,.93-1.88,1.89l-3.65,.48Z"/><path class="v" d="M216.77,386.96c.43-.12,1.02-.11,1.26-.4,.55-.65,2.12-.28,1.83-1.65-.24-1.13-1.49-.43-2.32-1.08,1.93-.76,1.54-2.38,1.54-3.86,0-18.18,0-36.36,.06-54.54,0-1.26-.2-1.42-1.32-1.13-.4,.1-.16-.44-.12-.7,.46,0,.91-.01,1.37-.02,1.13-.58,2.4-.32,3.58-.59,.36-.09,.72-.14,1.02,.16,.04,.07,.08,.19,.12,.19,3.32,.19,2.16,2.64,2.17,4.42,.02,17.61,.02,35.21,0,52.82,0,1.41,.5,3.17-2.18,2.8,.72,1.14,1.48,.73,2.09,.84,.5,.09,1.22-.11,1.21,.68,0,.68-.51,1.2-1.21,1.12-2.53-.3-1.71,1.12-1.28,2.37-2.66-.17-5.3-.46-7.82-1.4Z"/><path class="cb" d="M193.34,328.16c1.61-.77,3.34-1.07,5.08-1.34,.99,.28,1.97,.05,2.88-.25,2.58-.86,4.84,.68,4.24,3.25-.51,2.16-.24,4.24-.24,6.36-.03,12.75-.02,25.5-.01,38.25,0,2.52-.6,4.99-.88,7.49-.08,.76-.37,1.53-1.44,1.38-3.4-.74-6.58-2.05-9.64-3.68,1.6-2.14,2.35-4.51,2.35-7.21,.01-13.05-.14-26.1,.08-39.15,.01-.74-.05-1.35-.79-1.73-.48-.24-1.18-.84-.84-1.17,1.49-1.46-.39-1.54-.79-2.21Z"/><path class="aw" d="M202.98,383.3c1.79-.95,.69-2.84,.88-4.08,.35-2.22,.64-4.58,.6-6.94-.17-12.38-.13-24.77-.03-37.15,.01-1.79-1.06-3.64,.46-5.48,.68-.83-1.99-3.78-2.32-3.21-.9,1.52-2.1,.52-3.11,.77-.29,.07-.68-.24-1.03-.38,4.07-1.09,8.19-1.89,12.38-2.32-.02,.91-.69,1.49-1.27,2.46,1.12-.19,2.22-.55,2.81,.55,.53,.98,.37,2.01,.05,3.11-1.1-.42-.27-1.67-1.13-2.11-.76,.6-.44,1.42-.44,2.11-.02,16.75-.02,33.5-.02,50.25,0,.38,0,.77,.02,1.15,.02,.46,.05,1.02,.64,1.05,.59,.03,.68-.51,.7-.97,.03-.61,.02-1.22,.02-1.84,0-14.84,0-29.68,0-44.51v-2.71c.65,1.13,.45,1.92,.45,2.66,.02,15.68,0,31.36,.06,47.04,0,1.07-.18,1.8-1.27,1.42-1.18-.41-1.17,1.09-2.03,.99-2.25-.24-4.41-.77-6.42-1.84Z"/><path class="bm" d="M279.24,386.48c-.49-1.32-.25-2.22,1.31-2.5,1.05-.19,1.61-.72,1.16-1.94-.23-.62-.16-1.36-.16-2.04,0-15.2,0-30.41,0-45.61,0-1.18-.38-2.61,2.19-2.72-1.97-.89-3.24-1.04-4.63,.41,.25-1.45,.99-1.91,1.52-2.53,2.45,.77,4.9,1.53,7.35,2.3,1.6,.79,2.02,1.98,1.59,3.72-.28,1.16-.21,2.43-.21,3.65-.01,11.17,0,22.34,0,33.51q0,4.2,4.01,5.47c-1.1,.73-2.17,.61-3.12,.35-1.21-.34-2.11,.27-1.99,1.16,.29,2.09-1.44,3-2.12,4.49-2.08,1.41-4.69,1.24-6.9,2.28Z"/><path class="au" d="M193.34,328.16h4.22l.07,.53c-1.01,.56-2.01,1.11-3.13,1.73,.93,.94,2.17,.12,3.21,.89-1.15,.76-1.16,1.9-1.16,3.12,.03,12.92-.06,25.84,.1,38.76,.02,1.94-1.19,3.44-1.06,5.37,.06,.84-1.28,1.14-2.26,1.06-1.04-.32-2.07-.65-3.11-.97-1.56-.88-3.13-1.76-4.7-2.65-.62-.55-.69-1.16,.21-1.27,2.43-.32,1.79-2.05,1.35-3.27-.53-1.48-.67-2.73,.07-4.15,.42-.81,.22-1.81,.22-2.72,.01-9.64,.02-19.28-.01-28.92,0-1.9,.53-3.81-.07-5.7,1.91-.95,3.97-1.38,6.04-1.8Z"/><path class="bm" d="M288.89,383.28c1.19-1.99,3.14-1.86,5.06-1.83-1.5,1.14-3.25,1.54-5.06,1.83Z"/><path class="bt" d="M271.44,387.88c.74-1.2,1.86-.13,2.75-.47-.81,.75-1.83,.35-2.75,.47Z"/><path class="an" d="M271.45,280.35c-8.02-4.61-16.54-8.1-25.13-11.45-.35-.14-.7-.3-1.05-.45,.13-1.95,1.84-1.96,3.1-2.4,.74-.26,1.35-.37,1.76-1.2,1.06-2.18,3.04-3.63,4.81-5.12,1.31-1.1,2.71-2.15,4.07-3.23,2.24-1.77,3.78-4.18,5.89-5.98,3.4-2.91,6.32-6.41,10.26-8.68,.13-.08,.31-.11,.39-.23,2.7-4.06,7.6-5.85,10.22-9.99,.93-1.46,2.37-2.38,3.9-3.1,1.67-.79,3-1.81,3.31-3.78,.07-.45,.27-.96,.62-1.21,2.25-1.58,3.86-3.84,6.11-5.46,3.64-2.62,8.17-4.27,10.16-8.82,.09-.21,.25-.42,.44-.52,3.47-1.83,5.46-5.27,8.42-7.65,.24-.19,.66-.33,.69-.57,.29-2.8,2.65-2.29,4.38-2.79,4.07,3.56,8.17,7.08,12.21,10.68,6.66,5.92,13.28,11.88,19.91,17.82,1.1,1.98,3.41,2.74,4.63,4.6-.8,.41-1.65,.2-2.48,.2-10,.02-20,0-30,.02-.83,0-1.68-.19-2.48,.2-.15,0-.29,.02-.43,.04-.43,.79-.22,1.65-.22,2.47-.01,21,0,42.01-.02,63.01,0,.82,.23,1.68-.24,2.46-1.65,.82-3.36,.13-4.9-.14-14.24-2.5-27.75-7.16-40.34-14.33-2.65-1.51-5.12-3.32-8-4.4Z"/><path class="ao" d="M323.81,197.72c-.38,2.38-2.13,.97-3.58,1.16,1.12,1.38,.82,2.1-.73,2.72-2.05,.82-3.04,2.9-4.44,4.48-.66,.75-1.28,1.43-2.24,1.87-1.37,.63-2.2,1.72-3.07,3.09-1.35,2.13-3,4.47-5.87,5.05-.66,.13-1.12,.36-1.45,.94-.6,1.06-1.58,1.62-2.71,1.97-.44,.13-1.22,.34-1.22,.51,.05,2.5-2.23,2.62-3.59,3.68-.9,.7-1.52,1.54-1.36,2.94,.15,1.27-1.42,2.12-2.13,2.37-2.9,1.03-4.77,2.99-6.35,5.45-.67,1.04-1.76,1.64-2.76,2.34-1.67,1.15-3.38,2.22-4.4,4.17-.56,1.07-1.56,1.97-2.96,2.36-1.91,.53-2.96,2.35-4.32,3.64-.94,.88-1.78,1.81-2.91,2.47-2.52,1.48-3.72,4.2-5.7,6.21-.42,.43-.71,1.04-1.32,1.19-1.23,.3-1.97,1.09-2.48,2.19-.12,.27-.36,.65-.58,.67-2.78,.29-4.19,2.7-5.51,4.43-1.83,2.39-4.21,3.29-6.62,4.46-.12,.06-.18,.24-.26,.37-4.14-1.36-8.28-2.73-12.42-4.09-.54-.44-1.26-.2-1.84-.47-.45-.02-.89-.04-1.34-.07,.79-2.34,2.52-1.24,3.89-.95,.78,.16,.99,.48,1.21-.63,.19-.99,.86-1.9,.88-3.01,.02-.89,.64-1.34,1.46-1.51,3.59-.74,5.87-3.69,8.93-5.33,1.18-4.1,5.48-5.27,7.92-8.27,1.99-2.44,4.86-4.33,7.16-6.67,1.22-1.25,2.64-2.33,3.27-4.06,.22-.6,.67-1.15,1.35-1.05,1.61,.24,2.24-.84,3.03-1.91,1.55-2.11,3.44-3.89,5.93-4.9,.95-.38,1.8-.92,2.43-1.68,2.1-2.53,4.77-4.51,6.71-7.18,.92-1.27,2.28-2.01,3.38-3.05,4-3.76,8.15-7.4,11.88-11.41,3.18-3.42,6.8-6.24,10.5-9.26-.76-.38-2.09-.38-1.6-1.8,.49-.68,.98-1.36,1.73-1.8,.63-.37,1.31-.52,1.96-.13,.75,.44,.99,1.11,.64,1.82,.56-1.51,1.77-1.56,3.18-1.07,2.75,2.62,5.91,4.8,8.32,7.79Z"/><path class="fh" d="M223.66,262.45c-1.22-.14-2.44-.29-3.66-.43-3.66-.58-7.31-1.21-11.02-1.4-.11-.12-.15-.25-.14-.39,.01-.14,.03-.21,.06-.21,1.14-.59,2.01-1.79,3.52-1.56,.11,.02,.57,.68,.15-.13-.61-1.19,.54-1.71,1.13-2.46,2.49-3.15,6.27-4.86,8.82-7.9,3-3.56,6.66-6.42,10.18-9.37,3.33-2.8,5.74-6.57,9.61-8.75,1.12-.63,1.27-2.12,2.23-2.86,3.28-2.54,6.3-5.37,9.44-8.06,2.01-1.72,4.23-3.23,6.17-5.06,.62-.52,1.93-.78,.71-1.99-.2-.2-.19-.57-.19-.88,0-1.07-.12-2.26,1.25-2.63,1.35-.36,1.51,.83,1.87,2.1,2.39-2.74,5.69-3.9,7.35-6.92,.26-.47,.67-.84,1.09-1.16,3.2-2.41,6-5.22,8.44-8.37,2.7-3.48,6.86-5.34,9.54-8.82,2.26-2.93,5-5.31,8.29-7.08,.94-.51,1.8-.75,2.81-.63,2.04,.82,3.07,2.75,4.57,4.17,1.29,2.15,1.15,1.94-.96,3.25-2.06,1.28-3.75,3.13-5.41,4.93-2.48,2.7-5.22,5.09-8.01,7.48-4.04,3.45-8.24,6.83-11.71,10.89-3.05,3.57-6.87,6.24-10.32,9.34-1.77,1.59-3.46,3.24-4.75,5.25-1.07,1.65-2.4,3.06-4.17,3.83-2.71,1.18-4.52,3.3-6.44,5.37-3.69,3.97-7.4,8.03-11.59,11.4-3.73,3.01-6.92,6.62-10.89,9.33-.32,.22-.61,.47-.85,.77-1.84,2.24-3.24,4.93-6.14,6.07-.27-.1,.11,.06-.19,.09-.24,.02-.22,.1,.04,.07,.15-.02,.29-.06,.44-.08,1.03-.09,2.43-.41,2.52,1.01,.08,1.25-1.29,1.2-2.25,1.19-.64,0-1.2,0-1.55,.61Z"/><path class="eg" d="M224.59,259.28c.19-.41,.3-1.11,.58-1.17,2.6-.64,3.24-3.15,4.73-4.84,1.61-1.82,3.63-3.25,5.48-4.71,2.06-1.64,3.13-4.56,6.16-5.05,.54-.09,.94-.94,1.42-1.43,4.71-4.83,9.73-9.36,14.15-14.47,.41-.48,1.18-.67,1.79-.96,2.24-1.06,3.99-2.51,5.43-4.66,1.44-2.15,3.06-4.44,5.6-5.54,1.12-.48,1.3-1.68,2.16-2.25,4.51-2.98,7.66-7.4,11.58-11,4.38-4.03,9.2-7.56,13.37-11.82,1.64-1.67,3.25-3.37,4.88-5.05,.93-.96,1.83-1.89,3.4-1.76,.75,.06,.94-1.02,.57-2.9,3.54,2.37,6.41,5.52,9.62,8.27-1.11,.36-2.41,.29-3.21,1.56-.46-.66-.07-1.77-1.13-1.94-.81-.13-1.2,.49-1.69,.92-.39,.34-.71,.78-1.29,.83-1.92-.97-2.53-.85-3.28,1.1-.76,1.98-2.03,3.41-3.83,4.39-1.92,1.04-3,3.02-4.88,4.13-1.04,.61-2,1.38-3.11,1.92-1.34,.66-2.45,1.6-2.89,3.09-.7,2.33-2.44,3.85-4.15,5.37-.94,.84-2.1,1.27-3.41,.86-.75-.23-1.37-.03-1.88,.5-.68,.71,.19,1.03,.43,1.51,.65,1.3,.13,2.61-1.53,2.89-2.62,.44-4.24,1.83-5.34,4.15-.58,1.23-1.83,1.47-3.13,1.52-2.47,.1-5.42,3.07-5.59,5.55-.13,1.88-1.99,3.76-4.35,3.99-2.13,.21-3.6,1-4.36,3.08-.49,1.34-1.71,1.59-2.99,1.74-2.92,.34-5.03,3.48-4.36,6.39,.4,1.73-.84,3.32-2.92,3.06-2.44-.31-3.51,.58-4.43,2.74-.73,1.7-1.89,3.31-3.19,4.73-.31,.34-.6,.78-1.01,.92-3.78,1.33-6.98,4.03-11.01,4.73-.77,.13-1.69,.37-2.37-.4Z"/><path class="d`" d="M289.81,166.95c2,1.82,4.37,3.26,5.98,5.5,.78,1.6-.62,2.34-1.31,3.37-3.28,1.8-6.46,3.69-8.62,6.94-1.02,1.52-2.46,2.74-3.96,3.79-1.83,1.28-3.25,3.14-5.09,4.24-3.94,2.34-5.81,6.83-9.86,8.96-1.31,.69-2.6,1.57-3.78-.17-.07-.06-.11-.15-.19-.2,.2,.2,.36,.42,.49,.68,.99,1.88,.65,3.85,.38,5.79-.08,.59-.37,1.21-1.13,1.22-.64,.01-1.01-.5-1.05-1.01-.21-2.44-2.35-4.2-2.33-6.72,0-2.94-.25-5.89,.05-8.82,1.29-1.03,1.15-2.48,1.2-3.91,.06-1.4,.05-2.62,2.34-2.17,2.68,.53,6.32-2.29,7.36-5.26,.49-1.38,1.21-2.21,2.7-2.36,2.12-.22,2.62-2.7,4.49-3.29-.02-3.22,2.87-3.17,4.72-4.42,1.45-.98,3.47-1.73,3.67-4.02,.05-.58,.59-.88,1.2-.42,.44,.33,.69,.94,1.36,.94,.43,.49,.64,1.2,1.38,1.36Z"/><path class="dd" d="M287.07,164.65c-.24,.16-.7,.43-.69,.45,1.09,2.07-.9,2.08-1.74,3.07-1.77,2.09-4.5,2.27-6.37,3.96-.21,.2-.62,.55-.59,.59,1.5,2.18-1.35,1.77-1.78,2.9-.5,1.31-1.56,2.56-3.49,1.96-.66-.21-1.31,.53-1.23,1.08,.45,3.08-3.46,3.28-3.79,5.89-.07,.53-1.24,.24-1.91,.33-1.12,.16-2.43-.03-2.78,2.23-.38-1.26-.54-1.81-.74-2.47-.26,.22-.53,.34-.54,.47-.06,1.52-.06,3.04-.11,4.56-.01,.43,.17,1.07-.34,1.22-.7,.21-.55-.78-1.03-.98-1.82-1.1-1.17-3.19-1.9-4.73-.66-1.71-1.37-3.37-2.68-4.71-.55-.56-.87-1.25-.65-2.08,3.45-2.97,6.24-6.64,10.07-9.24,2.25-1.53,4.09-3.67,5.89-5.7,2.21-2.5,5.73-3.23,7.61-6.08,.32-.48,.95,.14,1.4,.39,2.56,2.19,5.3,4.17,7.37,6.88Z"/><path class="ej" d="M279.69,157.78c-.3-.04-.86-.14-.86-.12-.61,3.03-3.84,2.98-5.61,4.68-2.28,2.18-4.49,4.49-6.97,6.47-2.5,1.99-4.8,4.19-7.13,6.36-1.3,1.21-2.1,3.11-4.21,3.28-.68,.37-1.17-.05-1.56-.48-1.07-1.19-2.44-1.93-3.81-2.68-.54-.37-1.21-.63-1.3-1.42-1.25-4.33,1.28-6.8,4.34-9.13,1.8-1.38,3.29-3.06,5.72-3.56,1.58-.32,2.72-1.67,3.43-3.18,1.43-3.04,4.04-5.11,6.19-7.55,.66-.75,1.44-1.43,2.59-.92l1.87,1.82c.22,.97,.21,2.24,1.82,1.39,1.84,1.68,3.67,3.36,5.51,5.05Z"/><path class="j" d="M263.17,199.57c2.98,1.31,4.43-1.35,6.22-2.66,1.13-.83,2.63-1.91,2.65-3.79,0-.26,.44-.62,.75-.76,5.04-2.33,8.96-6.26,12.47-10.23,2.1-2.36,4.82-3.74,6.78-6.08,.62-.74,1.52-.55,2.35-.36,.1,.02,.2,.04,.3,.06,.53,.27,1.07,.53,1.7,.4,1.47,.39,3.03,.29,4.46,.9,.15,.15,.3,.3,.45,.44-4.11,2.02-7.66,4.61-10.57,8.28-1.53,1.94-3.36,3.8-5.74,5.11-1.97,1.09-3.45,3.17-4.93,4.99-1.8,2.21-3.75,4.19-5.98,5.96-1.21,.96-2.71,1.77-3.06,3.54-.07,.33-.39,.74-.7,.87-2.39,1-3.84,3.21-5.96,4.56-.52,.33-.96,.89-1.61,.49-.68-.42-.45-1.03-.09-1.59,.24-.37,.31-.72-.25-.84-.43-.09-.74,.11-.94,.47-.66,1.18,.08,2.79,1.4,3.1,.28,.07,.56,.14,1.29,.33-1.5,.6-2.62,1.05-3.73,1.5-.11-.08-.21-.16-.32-.23-.47-.68-.69-1.44-.79-2.25-.07-3.24-.04-6.47-.02-9.71,0-.88-.17-1.84,.68-2.5,.44,.4,.45,.93,.45,1.46,0,.3,0,.86,.04,.87,3.16,.4,1.05,3.26,2.71,4.63v-6.96Z"/><path class="ec" d="M270.5,149.52c-1.58,.78-2.43,2.48-3.74,3.37-3.21,2.17-3.77,6.34-6.92,8.43-.38,.25-.76,.69-1.15,.71-3.78,.17-5.42,3.56-8.04,5.42-1.61,1.14-3,2.95-1.45,5.3,.37,.57-.1,.98-.73,1.1-1.06,.67-1.96,.31-2.78-.44-.04-.16-.02-.5-.36-.16-.57,.11-.99-.06-1.26-.57-.12-.38,0-.74,.13-1.09-.19,.21-.22,.58-.52,.66-1.53,.41-3.06,.8-4.56-.11-.4-.54-.55-1.23-.15-1.71,1.16-1.4,1.93-3.17,3.3-4.31,4.33-3.59,8.43-7.46,12.81-10.98,2.25-1.81,4.45-3.6,6.36-5.75-.61-.87-2.37-.51-2.1-1.84,.28-1.33,1.64-1.05,2.69-1.05,.55,0,1.07-.04,1.48-.45,.54-.33,.56-1.34,1.5-1.15l1.37,.47c.93,1.82,2.91,2.6,4.12,4.14Z"/><path class="fh" d="M300.86,177.05c-1.61,.58-3.14,.35-4.62-.44-.63-.27-1.32-.42-1.84-.92h0c-.41-1.45,1.36-1.97,1.39-3.23,1.83,1.38,3.69,2.71,5.07,4.59Z"/><path class="ec" d="M274.18,152.73c0,1.04-.93,1.15-1.73,1.7,.12-1.13-.99-2.02-.09-3.09,.67,.37,1.47,.59,1.82,1.39Z"/><path class="dd" d="M289.81,166.95c-1.47,.56-1.03-.79-1.38-1.36,.61,.31,1.07,.76,1.38,1.36Z"/><path class="bf" d="M324.69,299.23c0-21.7,.01-43.4,.04-65.1,0-.96-.34-2,.44-2.85,0,21.7,0,43.4-.01,65.1,0,.96,.33,2-.47,2.85Z"/><path class="bf" d="M362.67,231.73c-.84,.57-1.78,.29-2.67,.29-10.62,.02-21.23,0-31.85,.02-.83,0-1.66,.16-2.49,.25,.53-.79,1.35-.58,2.08-.58,11.64,0,23.28,.01,34.93,.02Z"/><path class="bf" d="M325.6,231.24c.8-.67,1.75-.41,2.64-.41,10.77-.02,21.54-.01,32.31-.01-.3,.84-1.02,.43-1.52,.43-11.14,.02-22.29,0-33.43,0Z"/><path class="ar" d="M60.14,182.51l.55,.54c.31,.82,.16,1.67,.16,2.5,0,55.3,0,110.6,0,165.9,0,.81,.3,1.68-.29,2.44-.69-1.14-.35-2.4-.35-3.59-.02-54.63-.02-109.25-.02-163.88,0-3.39,0-3.32-3.32-3.43-1.96-.06-3.96,.47-5.87-.39,3.04-.47,6.09-.3,9.14-.09Z"/><path class="dk" d="M60.55,353.89c.03-2.68,.07-5.35,.07-8.03,0-53.66,0-107.31,0-160.97,0-.61,.04-1.22,.06-1.83,.69,.88,.39,1.92,.39,2.89,.01,55.03,0,110.06,.04,165.1,0,1.01-.67,2.41,1.01,2.9-.05,.13-.11,.26-.17,.38-.49-.05-1.09,.22-1.4-.43Z"/><path class="cq" d="M60.14,182.51c-3.05,.03-6.1,.06-9.14,.09-1.22-.02-2.43-.03-3.65-.05-.06-.12-.12-.25-.18-.37,3.82-.02,7.65-.05,11.47-.07,.54,0,1.08,0,1.51,.4Z"/><path class="as" d="M110.61,79.71c-1.45,.2-.79-.96-.8-1.45-.07-3.21-.1-6.41,0-9.62,.05-1.64-.42-2.29-2.18-2.28-14.58,.06-29.17,.05-43.75,0-1.1,0-1.83,.61-2.73,.94,0-.43,0-.85,0-1.28,.42-.48,.99-.32,1.5-.32,15.32,0,30.64,0,45.97,0,.52,0,1.08-.14,1.53,.27,.04,3.78,.07,7.56,.14,11.33,.01,.81-.25,1.67,.33,2.41Z"/><path class="ca" d="M60.19,122.4c-.03-9.26-.09-18.52-.09-27.78,0-9.26,.05-18.52,.08-27.78,.67,.7,.44,1.59,.44,2.41,.01,16.91,.01,33.82,0,50.73,0,.82,.22,1.7-.43,2.41Z"/><path class="by" d="M110.14,65.97c-16.33,.02-32.67,.03-49,.05,.57-.75,1.39-.52,2.12-.52,15.07-.01,30.15-.02,45.22,.02,.52,0,1.35-.57,1.65,.44Z"/><path class="ca" d="M60.68,124.27c-.47,.49-.93,.98-1.4,1.46-.01-.35-.03-.7-.04-1.06l.44-.44,1,.03Z"/><path class="fi" d="M187.31,329.96c.61,.03,1.21,.07,2.13,.12-1.5,1.18-1.12,2.65-1.12,4-.03,10.62,0,21.23-.03,31.85,0,1.01,.35,2.14-.91,2.84-.6,.33-.4,.99,.07,1.34,.88,.65,.85,1.53,.86,2.46,.04,2.9,.05,2.87-2.68,2.68-.37-.03-.11,.48-.1,.75-2.23-.9-4.42-1.91-6.42-3.27-.22-.65-.54-1.35-.11-1.98,1.32-1.91,1.07-4.08,1.08-6.19,.02-7.39,.01-14.78,0-22.17,0-1.52,.06-3.03-.59-4.49-.67-1.5,.38-2.41,1.45-3.26-1.59-.45-3.42,.99-4.57-.95,3.56-1.5,7.11-3.01,10.94-3.72Z"/><path class="fl" d="M176.37,333.69c2.06,.98,4.45-1.25,6.5,.77-.67,.39-1.36,.71-1.94,1.16-.7,.55-1.54,1.12-.53,2.18,.55,.57,.57,1.39,.56,2.16-.12,9.52,.22,19.04-.16,28.56-.04,.99,.47,1.89-1.07,2.23-.78,.17,.23,1.49-.62,1.98-2.51-1.26-5.11-2.37-7.4-4.04,1.03-1.13,.82-1.13,.8-3.7-.09-8.72-.56-17.45,0-26.17,.07-1.16,.08-2.26-.35-3.34,1.27-.91,2.75-1.35,4.22-1.78Z"/><path class="ax" d="M172.15,335.47c1.26,.11,1.9,.44,1.44,2-.41,1.41-.41,2.97-.42,4.46-.04,5.48,0,10.96-.02,16.44,0,2.08,.87,4.07,.11,6.27-.47,1.35,.94,2.58,1.75,3.69-1.14,1.05-2.28-.26-3.3,.34-2.42-1.03-4.75-2.22-6.91-3.73,.24-1.64,.46-3.34,.51-4.93,.23-7.25-.01-14.52,.47-21.77,2.03-1.14,4.08-2.22,6.36-2.79Z"/><path class="cn" d="M165.78,338.26c.82,.3,1.11,.77,.99,1.73-.87,7.03-.56,14.09-.33,21.15,0,.15,.09,.4,.03,.44-2.72,1.85,.16,2.09,.97,2.84-.84,.98-1.77,.57-2.64,.54-2.54-1.03-5-2.22-7.33-3.68,.86-.55,1.2-1.13,1.38-2.33,.67-4.36-.71-8.56-.63-12.84,0-.37-.28-.84-.09-1.11,.91-1.23-.02-1.88-.71-2.63,2.67-1.6,5.43-3.02,8.36-4.1Z"/><path class="ey" d="M124.44,338.35c3.07,.6,6.14,1.2,9.21,1.8,2.04,1.51,3.03,3.34,2.55,6.04-.29,1.6-.98,3.41,.34,4.99,.14,.16,.12,.44,0,.65-.2,.41-.57,.41-.96,.44-.13,.01-.19,.11-.15,.1,.58-.13,1.38-.02,.72,.64-.58,.58-1.7,.22-2.56-.03-2.35-.18-4.62-.8-6.9-1.35-.12-.18-.25-.36-.37-.53-.57-2.58-.37-5.19-.38-7.79,0-1.48,.27-3.05-1.61-3.81-.59-.24-.6-.83,.1-1.17Z"/><path class="ed" d="M157.42,342.36c1.14,.33,2.27,.69,3.45,.3,.17,1.22-.52,1.07-.99,1.15-.81,.13-1.48,.72-1.13,1.37,1.16,2.2,.44,4.49,.59,6.73,.1,1.53-.08,3.06,1.27,4.21,.31,.27,.67,.99,.18,1.17-2.48,.94-1.19,2.44-.5,3.98-1.06,0-1.94,0-2.83,0-1.27-.52-2.66-.8-3.69-1.81-1.21-2.14-1.3-4.38-.77-6.73,.2-.88,.15-1.81,.06-2.71-.23-2.31-.87-4.7,1.66-6.27,.71-.83,1.87-.8,2.7-1.39Z"/><path class="cd" d="M133.6,353c.74-.03,1.48-.07,2.25-.1-.22-.68-.92-.14-1.17-.62,.33-.5,1.23,.04,1.49-.89-1.54-.6-1.72-1.07-.99-3,.98-2.56,.39-5.75-1.53-8.25,2.82,.28,5.52,1.12,8.25,1.86,2,3.9,1.23,8.08,1.17,12.18,0,.37-.36,.65-.72,.8-.49,.03-.98,.11-1.43-.14-2.48-.43-4.94-.95-7.31-1.85Z"/><path class="cm" d="M124.44,338.35c0,.21,.01,.62,.02,.62,2.93-.03,2.27,2.1,2.3,3.8,.02,1.14,.09,2.28-.03,3.41-.13,1.31-.6,2.69,2.03,2.53-1.72,.43-2.41,1.08-2,2.44-.93,.35-1.87,.32-2.81,.02-1.07-.07-2.18,.13-3.19-.45-.47-.61-1.33,.05-1.81-.54,.99-4.29,1.94-8.58-.46-12.75,1.07,.11,2.15,.22,3.22,.33,.87,.37,1.78,.59,2.73,.59Z"/><path class="at" d="M142.38,354.8c-.02-3.36,0-6.73-.08-10.09-.02-.9-1.95-1.53-.41-2.7,2.14,.12,3.89,1.55,6,1.78,1.55,.72,1.16,2.4,1.5,3.58,.54,1.85,.27,3.89,.08,5.86-.06,.59-.99,1.15,.22,1.86,.4,.23-.06,1.97-1.44,1.9-.56-.03-1.22,.05-1.73-.35-.15,0-.3-.03-.44-.08-1.08-.91-2.73-.63-3.7-1.76Z"/><path class="bu" d="M146.52,356.64c1.39,.22,2.46-.06,2.67-1.84-.39,.13-.73,.23-1.08,.35-.48,.16-1.11,.63-1.34-.14-.26-.86,.4-1.02,1.1-.92,.99,.14,.92-.58,.92-1.17,.02-1.75,.37-3.62-.1-5.23-.38-1.3-.14-2.69-.8-3.89,2.28,.43,4.57,1.87,6.83-.05,.47,.36,.47,1.06,.11,1.16-2.09,.61-1.11,1.96-1.04,3.27,.14,2.55,.33,5.15-.51,7.64-.29,.86,.09,1.32,.65,1.74,.99,.75,.82,1.34-.16,1.9-2.42-.94-4.84-1.88-7.26-2.82Z"/><path class="dh" d="M113.12,350.15c.41,.03,.82,.06,1.23,.08,0,.27,0,.54,.01,.8-3.29-.26-6.59-.52-9.88-.79,2.88-.03,5.76-.07,8.64-.1Z"/><path class="bu" d="M142.38,354.8c1.21,.64,2.88,.3,3.7,1.76-1.77-.43-3.53-.89-5.17-1.71,.49-.02,.98-.03,1.47-.05Z"/><path class="g" d="M118.95,350.18c.63,.09,1.35-.14,1.81,.54-1.19-.06-2.39-.13-3.58-.19,.53-.45,1.17-.27,1.77-.34Z"/><path class="ac" d="M123.95,351.16c.94,0,1.87-.01,2.81-.02-.02,.17-.04,.34-.06,.51-.93-.08-1.91,.07-2.76-.49Z"/><path class="eh" d="M323.8,365.83c-.88,.42-1.59-.03-2.4-.46,2.35,.06,3.18-1.93,4.57-3.15,.25-.23,.37-.56,.16-.82-1.74-2.18-.9-4.73-.92-7.1-.09-11.33-.05-22.66-.03-33.98,0-1.11-.17-2.19,.78-3.21,.86-.92-.33-.74-.79-.88-.9-.8-3.02-.6-2.3-2.76,.38-1.42,2.22-.65,2.76-1.84,2.22,0,4.45-.17,6.64,.04,3.93,.37,7.74-.68,11.54-1.16,4.59-.58,9.08-2.15,13.48-3.99,3.05-1.27,5.73-3.18,8.8-4.34,.06-.02-.01-.42-.03-.64,2.5-.99,4.66-2.55,6.56-4.36,2.54-2.42,5.42-4.49,7.78-7.27-1.39,6.88-2.94,13.63-6.09,19.89-2.26,4.24-4.5,8.5-6.82,12.7-.35,.63-.53,1.24-.6,1.91-1.56,.37-1.83,1.51-1.71,2.89v-.02c-.9,.73-1.45,1.7-1.87,2.76v-.02c-2.48,2.52-4.52,5.39-6.42,8.37-.08,.42-.34,.68-.71,.86-1-.08-1.47,.71-2.04,1.28-2.92,2.89-5.72,5.91-8.74,8.7-4.76,4.4-9.48,8.85-14.98,12.37-.85,.55-1.74,1.26-2.05,2.37-.98-.1-1.76,.27-2.36,1.01-.58,.71-1.33,.91-2.2,.84Z"/><path class="ek" d="M356.9,338.4c0-.38-.15-.89,.04-1.1,2.17-2.39,3.27-5.72,6.39-7.27-1.87,3-3.97,5.82-6.43,8.37Z"/><path class="ek" d="M363.32,330.04c-.13-1.44,.43-2.39,1.88-2.76-.06,.26-.12,.52-.17,.79-.57,.66-1.14,1.31-1.7,1.97Z"/><path class="al" d="M245.71,130.68c.63-.09,.79-.54,.98-1.07,.35-.98,1.06-.84,1.5-.16,1,1.56,2.79,2.18,3.95,3.53,.29,1.25,1.15,1.91,2.3,2.29,.56,.88,1.62,1.83,.48,2.8-1.35,1.15-2.56-.06-3.78-.63,.91,1.34,.79,2.53-.72,3.34-1.65,.89-2.95,2.21-4.2,3.53-2.22,2.34-4.88,4.18-7.16,6.38-3.13,3.01-6.84,5.56-9.37,9.01-2.14,2.91-5.28,4.54-7.41,7.2-3.02,3.79-7.72,5.7-10.37,9.88-1.15,1.82-3.58,2.2-5.19,3.68-1.41,1.29-2.77,2.61-4.03,4.04-2.87,3.26-6.68,5.59-9.05,9.34-.5,.79-1.33,1.32-2.24,1.53-1.94,.45-3.34,1.76-4.29,3.26-1.99,3.13-4.96,5.19-7.75,7.34-2.67,2.05-4.44,5.12-7.62,6.54-1.99,4.13-6.48,5.82-9.12,9.42-1.5,2.04-3.76,3.79-6.2,4.99-1.31,.64-2.21,1.6-2.44,3.09-.46,.48-1.03,.49-1.66,.44-.78-.06,0,.31-.08,.47,.22,.97-.65,.94-1.13,1.27h-.93c-1.84-.52-3.72-.09-5.57-.23-1.03-1.33-1.01-1.39,.7-1.97,.3-.08-.24-.26-.03-.04,.07,.08,.03,.14-.12,.17-1.42,.22-2.79,.84-4.27,.47-.67-.17-1.45-.27-1.45-1.17,0-.77,.69-1.07,1.28-1.06,2.58,.03,4.38-1.06,5.45-3.41,.09-.2,.28-.4,.48-.48,4.61-1.83,7.24-6.03,10.42-9.37,2.97-3.11,6.17-5.55,9.82-7.58,.34-.19,.59-.46,.77-.82,1.68-3.49,4.77-5.59,7.58-8.07,3.01-2.66,5.74-5.72,8.79-8.32,2.62-2.23,4.91-4.9,8.13-6.5,1.68-.84,2.95-2.67,4.02-4.19,1.68-2.38,4.09-3.85,5.99-5.91,1.95-2.12,4.03-4.18,6.67-5.54,.96-.49,1.77-1.25,2.33-2.17,1.59-2.6,4.18-4.22,6.19-6.38,3.85-4.16,8.29-7.68,12.49-11.42,3.82-3.4,7.03-7.46,11.29-10.37,.63-.43,1.19-.96,1.74-1.5,.88-.87,1.89-1.65,.73-3.07-.4-.49-.3-1.17,.28-1.63,.74-.05,1.63,.2,1.84-.92Z"/><path class="bh" d="M243.88,131.6c.05,.59-.19,1.4,.5,1.64,2.27,.79,.91,1.66,.13,2.56-2.42,2.76-5.64,4.6-8.19,7.28-3.89,4.1-8.02,8.03-12.43,11.56-3.52,2.81-6.19,6.49-9.95,9.02-.66,.44-1.12,1.25-1.52,1.97-.74,1.3-1.68,2.45-2.97,3.11-3.19,1.64-5.51,4.24-7.9,6.78-.05,.06-.09,.13-.16,.16-2.84,1.48-4.46,4.32-6.56,6.52-1.46,1.53-3.33,2.2-4.65,3.62-1.46,1.58-3.18,2.75-4.83,4.05-1.44,1.13-2.8,2.68-4.12,4.12-1.63,1.78-3.3,3.83-5.1,5.07-2.29,1.58-4.07,3.58-6.15,5.3-.29,.24-.69,.5-.78,.82-1.2,4.23-5.64,4.48-8.35,6.84-.28,.25-.78,.34-.93,.62-1.65,3.35-5.07,5.1-7.19,7.89-1.53,2.01-3.13,3.36-5.32,4.27-.14,.06-.37,.09-.41,.19-1.15,3.33-3.66,4.5-7.11,4.32,2.02,.94,4.05,.35,6.08,.81-.92,.23-1.94,.33-1.77,1.61-2.91,.38-5.82,.38-8.73,0,.41-.58,1.13-.32,2.13-.88-2.32,.35-3.63-1.24-6.13-1.05,1.92-1.35,2.44-3.4,4.86-2.92,.71,.14,2.01-.48,2.36-1.13,1.65-3.02,4.51-4.62,7.1-6.55,.56-.41,.97-.8,.96-1.66-.03-2.17,1.41-3.46,3.63-3.4,.4,.01,.78,.07,1.05-.26,1.96-2.45,5.18-3.59,6.7-6.47,1.38-2.62,4.52-3.66,5.74-6.43,.22-.5,.97-.33,1.46-.51,1.5-.56,3.27-.77,3.59-2.9,.13-.85,.95-1.33,1.67-1.8,.78-.5,1.47-1.11,1.62-2.12,.08-.56,.29-1.27,.85-1.22,2.57,.22,2.78-1.31,3.09-3.32,.15-.96,1.55-1.82,2.52-2.53,2.08-1.52,4.35-2.78,6.36-4.39,2.76-2.2,5.49-4.47,7.94-7,1.15-1.19,2.49-2.26,3.42-3.66,2.44-3.7,7.13-5.09,9.25-9.22,.48-.95,1.92-1.51,2.18-2.93,.11-.59,.73-.92,1.37-1.09,4.03-1.04,7.14-3.18,9.34-6.87,.97-1.62,2.86-2.64,4.14-4.2,2.11-2.56,3.69-5.65,6.72-7.41,.66-.39,1.27-.73,2.03-.93,.93-.25,2.8,.07,1.49-2.16-.67-1.14,1.01-2.08,1.82-2.05,3.55,.13,4.78-2.78,6.75-4.74,.18-.18,.31-.33,.56-.17,.32,.28,.46,.64,.45,1.05,0-.02,.04,.12,.04,.12,0,0,.14-.03,.14-.04,.08-.11,.17-.17,.29-.2,.56,.05,.87,.36,.92,.92Z"/><path class="a`" d="M135.49,231.72c2.91,0,5.82,0,8.73,0,1.98,.24,4.04-.51,5.96,.46-7.39,0-14.78,0-22.17,0-.89,0-1.85,.27-2.62-.44,3.37,0,6.73,0,10.1,0Z"/><path class="al" d="M242.04,131.6v-1.84c.56,.05,.87,.36,.92,.92v.92c-.31,.27-.61,.27-.92,0Z"/><path class="bh" d="M205.25,160.11c-.06,.27-.06,.64-.48,.53-.14-.04-.27-.31-.31-.49-.05-.29,.02-.62,.37-.65,.4-.03,.4,.32,.42,.61Z"/><path class="dc" d="M77.63,333.68h-.45c-.44-.71-.23-1.5-.23-2.25,0-54.24-.01-108.49,0-162.73-.02-.31,.05-.6,.23-.86,.81,.84,.43,1.89,.43,2.84,.02,54.33,.03,108.67,.03,163Z"/><path class="o" d="M77.16,167.84v.51c-.16,.29-.31,.29-.47,0H42.16c.26-1.02,.78-.44,1.14-.5,6.18-.03,12.35-.07,18.53-.08,5.11,0,10.22,.04,15.33,.06Z"/><path class="u" d="M90.61,334.08c-.08-.12-.16-.24-.24-.35,1.1-.01,2.21-.02,3.31-.04,.41,.18,.99-.31,1.29,.32l-.4,.17c-1.33,.21-2.65,.43-3.96-.11Z"/><path class="cx" d="M190.16,273.07l2.72-.02c.71-.42,1.5-.12,2.24-.22,1.8-.24,2.36,.83,2.73,2.35,2.56,10.71,1.14,21.59,1.44,32.39,.03,1.02-.31,2-.84,2.83-.79,1.23-.25,2.72-.94,3.93-3.83,.93-7.67,1.86-11.5,2.78-.27-.26-.29-.56-.19-.9,.96-1.12,2.05-1.93,3.66-1.74,.44,.05,.52-.28,.21-.69-.21-.06-.39-.17-.56-.29-1.49-.93-1.43-2.08-.33-3.2,.78-.79,.93-1.69,.93-2.71,.01-8.22,.03-16.45-.01-24.67,0-.68,.07-1.45-.4-1.98-.88-.99-2.66-1.7-.78-3.34,.14-.13-.07-.47-.27-.55-1.95-.78-.87-1.97-.43-3.08,.78-.3,1.55-.6,2.33-.89Z"/><path class="aw" d="M205.29,272.19c2.48-.28,4.91,.2,7.35,.45,.96,.87,.92,2.03,.93,3.18,.01,11.04,0,22.09,0,33.13,0,2.44-.21,2.6-2.66,2.65-.54,0-1.07,.1-1.48,.5l-2.3,.42c-.49-1.06-.92-.51-1.35,.05-.83,.69-1.83,.36-2.76,.48-.95-.16-1.94-.06-.83-1.56,1.37-1.86,1.8-4.06,1.77-6.46-.12-9.56-.06-19.12-.04-28.68,0-1.52-.16-3.12,1.36-4.15Z"/><path class="h" d="M209.43,312.09c-.42-2.35,1.66-.5,2.17-1.29,1.39,1.33,1.17,0,1.17-.75-.03-12.47-.08-24.95-.13-37.42,3.09,.24,6.15,.72,9.19,1.36-.25,2.19,.66,4.43-.32,6.6-.34,.77-.19,1.65-.18,2.49,.15,8.82-.3,17.65,.25,26.46,.04,.65-.15,1.2-.73,1.56-.11,.04-.23,.08-.34,.13-.63-.01-1.26-.03-1.89-.04-.58,.25-1.26,.08-1.83,.4l-7.36,.51Z"/><path class="cw" d="M186.01,316.23c0,.29,0,.59,0,.88-2.14,.63-4.28,1.26-6.42,1.89-1.45-.11-1.83-1.2-2.11-2.35-.25-1.05-.19-2.12-.19-3.19,0-9.69,0-19.39,0-29.08,0-1.3-.02-2.49-1.1-3.56-1.16-1.14-.04-1.71,.94-2.07,1.28-.47,2.72-.72,2.92-2.46,.12-.04,.24-.06,.37-.05,.64-.28,1.41-.26,1.92-.84,.15-.04,.3-.06,.45-.06,1.68-.36,2.14,.29,2.64,2.02,1.18,4.06,.97,8.14,1.02,12.24,.1,8.45-.13,16.91-.07,25.36,0,.47-.05,.91-.37,1.28Z"/><path class="fe" d="M205.29,272.19c-.37,1.18-.47,2.38-.46,3.61,.02,10.46,0,20.92,.04,31.39,0,1.37-.14,2.63-1.26,3.49-1.38,1.06,.46,.88,.48,1.41-.58,.74-1.28-.45-1.87,.26l.81,.7c-1.77,.75-3.69,.82-5.53,1.28,.18-1.76-1.59-.23-1.93-1.41,.07-.99,1.21-1.09,1.99-1.55,.16-.9-1.13-.41-1.07-1.38,1.91,.08,1.94-1.22,1.93-2.7-.04-8.16,.04-16.32-.05-24.48-.03-2.9-1.54-5.54-1.65-8.54-.08-2.07-2.49-.9-3.85-1.23,4.08-1.17,8.25-.92,12.42-.85Z"/><path class="c" d="M172.2,321.67l-7.32,2.76c-.22-.23-.49-.59-.33-.8,1.88-2.47,.17-5.26,.7-7.9,.56-2.81,.14-5.78,.16-8.68,.01-2.82,0-5.65,0-8.47,0-2.9-.05-5.8,.03-8.7,.04-1.25-.19-2.23-1.4-2.85-.63-.32-1.01-.92-1.09-1.66,2.92-2.51,6.21-4.42,9.76-5.91,.49-.37,.86-.18,1.09,.29,.31,.64,.29,1.34,.23,2.02-.9,10.41-.21,20.83-.44,31.25-.03,1.29,.13,2.6-.33,3.85-.11,.31-.4,.55,.07,.92,1.58,1.24,1.31,2.23-.52,2.92-.38,.14-.44,.59-.61,.93Z"/><path class="ee" d="M172.2,321.67c-.17-.61-1.53-1.34,.18-1.76,.5-.12,1.44,.28,1.31-.69-.1-.75-.67-1.32-1.64-1.17-.42,.06-.92,.11-1.48-.5,2.81-.02,2.08-1.99,2.11-3.52,.14-8.76,.07-17.53,0-26.29-.02-2.48,1.02-4.79,.54-7.23-.09-.45,.09-.91-.54-1.02,2.24-1.55,4.82-2.33,7.35-3.2,1.29,1.14,1.88,2.02-.49,2.6-1.12,.28-2.21,.81-3.56,1.09,2.43,.16,2.22,1.75,2.22,3.31-.02,10.52,.01,21.05-.04,31.57,0,1.6,.28,2.98,1.41,4.14-2.46,.89-4.92,1.79-7.39,2.68Z"/><path class="ab" d="M162.94,285.39c.94,.46,1.53,1.54,2.76,1.48,.51-.02,.81,.25,.78,.86-.58,9.84,.16,19.7-.42,29.53-.09,1.57-.93,3.07,1.41,3.71,.66,.18,0,1.27-.24,1.21-2.12-.57-2.03,1.03-2.35,2.25-.91,.35-1.82,.69-2.74,1.04-2.33-.14-2.75-1.63-2.72-3.61,.12-8.75-.2-17.5,.19-26.25,.06-1.43-.74-2.74-.37-4.26,.19-.78-1.43-.35-1.61-1.28,1.37-2.01,3.42-3.27,5.31-4.68Z"/><path class="l" d="M186.01,316.23c-1.22-2.02-.82-4.36-.7-6.41,.54-9.18,.08-18.35,.18-27.52,.02-1.65,.16-3.6-1.67-4.73-.14-.08-.26-.38-.22-.54,.27-1.04,.11-1.4-.83-1.7,1.55-.93,3.28-1.2,5.04-1.36,.8,0,1.61,0,2.9,0-1.13,1.34-2.25,1.24-3.35,1.58,.49,.24,.99,.32,1.21,.62,.53,.7,2.08,.31,1.89,1.64-.19,1.27-1.65,.38-2.41,1.33,2.97,.13,2.53,2.25,2.53,4.1,.01,8.39,0,16.78,0,25.18,0,1.06,.05,1.91-1.31,2.52-2.04,.92,.37,1.66,.39,2.55,.85-.02,1.37-1.38,2.44-.63-1.27,2.56-3.9,2.59-6.11,3.38Z"/><path class="fc" d="M156.6,328.05c-.82,.38-1.65,.74-2.47,1.13-2.66,1.29-2.73,1.32-3.37-1.46-.62-2.71-1.58-5.36-1.53-8.2-.33-4.04-.32-8.08,0-12.12,.22-4.76,2.22-8.85,4.74-12.75,1.53-.67,2.07,.33,2.43,1.5,.29,.96,.21,1.96,.21,2.95,0,6.78-.01,13.56,.01,20.34,0,1.65-.32,3.37,.9,4.81,.25,.29,.36,.89,.04,1.04-1.29,.63-.4,1.93-.96,2.75Z"/><path class="eo" d="M156.6,328.05c-.09-.29-.25-.58-.25-.87,0-.92-1.86-.3-1.31-1.63,.49-1.18,1.6,.61,2.14-.65-1.82-.44-1.48-1.96-1.48-3.34,0-8.08-.02-16.16,.01-24.24,0-1.34-.1-2.47-1.75-2.66,.98-1.71,2.29-3.17,3.66-4.58,.92,.39,1.89-1.25,2.67-.06,.51,.79,.73,1.86-.47,2.51-.1,.05-.12,.53-.05,.58,1.79,1.07,.5,2.55,.51,3.84,.02,8.95,.01,17.9,.02,26.84,0,.21,.09,.43,.15,.68,.83,.05,1.29-1.49,2.15-.61,.5,.51-.59,.97-.46,1.61-1.7,1.18-3.7,1.72-5.54,2.58Z"/><path class="n" d="M233.31,311.62c-1.22,0-2.45,0-3.67,0-3.04-.24-6.12,.5-9.13-.4l-.05-.06c1.02-.6,2.07-1.06,3.29-.89,1.58,.29,3.15,.15,4.74,.02,1.55-.12,3.19-.4,4.64,.55,.26,.21,.32,.47,.18,.77Z"/><path class="cj" d="M149.23,307.41c0,4.04,0,8.08,0,12.12-.76-4.04-.83-8.08,0-12.12Z"/><path class="fe" d="M205.78,312.57c.24-.59-.43-1.41,.35-1.8,.34-.17,.87,.04,1.32,.07-.11,.56-.22,1.12-.32,1.67-.45,.02-.9,.04-1.35,.05Z"/><path class="l" d="M182.34,275.39c-.27,1.13-1.16,.83-1.92,.84,.54-.5,1.18-.78,1.92-.84Z"/><path class="y" d="M216.79,311.59c.55-.4,1.11-.79,1.83-.4-.52,.55-1.19,.41-1.83,.4Z"/><path class="y" d="M233.32,311.23c-3.21-.03-6.42-.05-9.63-.08-.1-.58,.31-.93,.72-.99,2.1-.34,2.04-1.85,2.04-3.44,0-8.15-.06-16.3,.03-24.46,.01-.85,0-1.65-.69-2.31-.69-.67-.68-1.56,.26-1.81,1.39-.37,1.54-1.02,1.02-2.17-.08-.18,.13-.42,.28-.59,1.77-.18,3.37,.53,5.04,.92,.75,1.33,2.26,1.06,3.4,1.53,1.37,.56,2.07,1.15,1.51,2.7-.47,1.32-.35,2.72-.35,4.09-.01,7.03,.02,14.05-.02,21.08-.01,1.96-.06,3.84,2,4.95,.33,.18,.5,.57,.36,.99h-4.58c-.42-.3-1.03,.08-1.39-.41Z"/><path class="dr" d="M288.43,301.53c-.04,1.59-.95,3.17-.42,4.73,1.82,5.42,.53,10.98,.85,16.47,.18,3.17-.12,3.32-3.29,2.96,.3,1.68,1.17,2.64,2.86,2.89,.98,.15,1.42,.81,1.38,1.8-.03,.59,.16,1.36-.91,1.01-3.83-2.45-7.66-4.9-11.49-7.35-.07-.47,.49-1.01-.21-1.43-.49-.29-.86-.94-.65-1.36,.83-1.67-.35-3.69,1.08-5.26,.51-.56,.33-1.46,.34-2.22,.02-2.9,0-5.8,0-8.69,0-1.38,.01-2.73,.77-3.98,.56-.92,.23-1.92,0-2.89-.12-.5-.55-1.22,.53-1.27,3.28,1.1,6.23,2.83,9.18,4.6Z"/><path class="aa" d="M227.34,275.38c-.16,1.88,1.73,.97,2.41,1.71-.54,2.19-2.7,1.06-3.97,1.77,.56,1.01,1.59,.3,2.19,1.09-.78,.96-.63,2.19-.63,3.38,0,8.08-.06,16.17,.04,24.25,.03,2.18-.27,3.61-2.9,3.2-.24-.04-.53,.24-.8,.37-1.08,0-2.15,.02-3.23,.03,1.14-1.21-.08-2.41-.06-3.62,.13-7.88-.03-15.76,.14-23.64,.03-1.54-1.46-3.57,.89-4.83,.27-.15-2.15-.79-.34-1.81-2.22-1.65,1.06-2.06,.74-3.28,1.94,.05,3.76,.6,5.51,1.38Z"/><path class="er" d="M255.81,314.85c-3.62-.29-7.04-1.56-10.56-2.3-.36-.96,.12-1.32,.99-1.43,.96-.12-.15-.58,.14-.83,2.67-1.89,2.07-4.72,2.11-7.36,.1-5.7-.25-11.41,.29-17.11,.08-.9,.04-1.76-.45-2.63-.81-1.45,.14-1.27,1.07-.97,2.42,.61,4.71,1.53,6.88,2.76,1.05,.53,1.12,1.45,1.18,2.5,.4,6.55,.08,13.1,.19,19.64,.02,1.14,.05,2.17,.99,3.13,1.76,1.79,1.5,2.42-1.06,3.38-.05,.38-.77-.62-.57,.29-.13,.66-.41,1.12-1.19,.92Z"/><path class="ex" d="M246.64,310.71c.8,.05,1.64-.15,2.52,.32-1.06,1.4-3.22-.41-3.9,1.52-.15,0-.3,0-.45-.01-.66-.68-1.55-.22-2.3-.45-.15,0-.3,0-.46,0-.85-.58-1.91,.12-2.76-.45h0c-2.44-.82-3.38-2.29-3.3-5.06,.24-7.64,.08-15.29,.08-22.93,0-.61,.21-1.31-.02-1.82-.49-1.08,2.02-2.31-.3-3.3-1.32-.56-2.46-1.02-3.74-.06-.11,.08-.41-.09-.76-.19l1.13-1.98c3.07,.92,6.13,1.84,9.2,2.75,1.78,1.49,1.88,3.56,1.83,5.61-.19,7.52,.11,15.04,.01,22.55-.01,1.04,.49,1.71,1.35,2.19,.67,.37,1.32,.75,1.86,1.31Z"/><path class="dq" d="M264.09,318.06l-1.84-.93c-.49-.65-.07-1.16,.32-1.62,.48-.57,.53-1.22,.53-1.92,.05-5.69,.06-11.39,.21-17.08,.03-1.3,.11-2.57-.12-3.86-.44-2.54-.3-2.72,2.27-3.52,2.14,1.07,4.28,2.15,6.42,3.22,.14,.54,.42,.96,.9,1.27,.5,.32,.78,.77,.35,1.33-.43,.56-1.04,.69-1.63,.32-.55-.36-.94-1-1.68-.82,1.86,.7,4.02,4.82,3.23,7.25-1.13,3.47-.63,6.95-.79,10.43-.05,1.07,.03,2.14-.06,3.2-.08,.98-.97,2.06,.92,2.57,1.03,.28,.72,1.97-.38,2.55-.56,.3-1.22,.06-1.78,.36-2.37-.74-4.41-2.28-6.89-2.75Z"/><path class="cg" d="M265.46,289.14c-2.13,1.35-1.71,3.12-.97,5.07,.4,1.06-.5,2.08-.45,3.25,.14,3.28-.02,6.57,.07,9.85,.06,2.37-.89,4.73-.03,7.11,.61,1.69-1.55,1.59-1.83,2.72-2.1-.88-4.45-1.08-6.43-2.28,.58-.28,.9-.74,.92-1.38,.56-.84,1.54-.88,2.44-1.15-.07-.26-.07-.6-.18-.64-2.66-1.06-2.3-3.31-2.27-5.5,.05-5.28,.05-10.56,0-15.83-.02-1.79-.28-3.57-.44-5.35,3.06,1.38,6.12,2.76,9.18,4.15Z"/><path class="cf" d="M270.98,320.81c.25-1.19,2.46-.5,2.13-1.92-.36-1.54-1.98-.5-2.95-.91-.19-.08-.36-.23-.91-.58,2.2-.07,2.23-1.34,2.2-2.77-.06-2.97-.03-5.95-.01-8.93,0-1.2-.03-2.33,.76-3.47,.68-1,.24-2.34-.18-3.48-.18-.5-.57-.94-.65-1.45-.29-1.84-.99-2.97-3.12-2.23-.33,.12-.76,.03-1.14-.5,1.48-.56,2.89-.71,4.26,.05,.6,.33,1.26,.67,1.52-.07,.37-1.05-.81,.03-1.03-.59-.21-.59-1.36-1.08,.03-1.62,2.52,1.42,5.37,2.31,7.37,4.57-.97,.94,1.03,.87,.57,1.82-.5,1.04,1.11,2.66-.9,3.47-.24,.1-.13,1.14-.14,1.75-.01,3.58-.03,7.17,0,10.75,.01,1.25,.11,2.47-1.61,2.71,.74,.94,3.12,1.52,.33,2.61-.82,.32-.35,1.34-.22,1.84,.25,.97,.5-.06,.78-.16,.42-.15,.54,.2,.61,.48,.3,1.11-.51,1.46-1.28,1.84-2.14-1.07-4.28-2.15-6.43-3.22Z"/><path class="fd" d="M246.64,310.71c-2.42,.34-4.13-1.08-4.13-3.47,0-5.65,.22-11.32-.08-16.95-.2-3.74,.81-7.6-.84-11.24,2.63,1,5.38,1.71,7.82,3.18-.27,.14-1.04,.13-.79,.3,2.12,1.41,.99,3.25,.87,4.99-.1,1.52-.09,3.06-.09,4.58,0,4.97-.02,9.94,0,14.92,0,1.51,.18,3.02-2.08,2.88-.42-.03-.58,.43-.68,.81Z"/><path class="dr" d="M293.48,303.37c-1.53,1.48-2.24,1.21-3.67-1.38,.46,.15,.92,.31,1.38,.46,.63,.64,1.53,.59,2.29,.91h0Z"/><path class="dx" d="M293.47,303.37c-.88,0-1.8,.08-2.29-.91,.81,.18,1.64,.31,2.29,.91Z"/><path class="ev" d="M345.8,166.99c.41,.16,.76,.4,.92,.84-.38,.36-.85,.27-1.3,.27-10.51,0-21.01,0-31.52,0-.38,0-.76,0-1.11-.19,0-.16,0-.31,0-.47,9.72,0,19.44-.03,29.16-.01,1.31,0,2.59-.08,3.85-.45Z"/><path class="bp" d="M306.28,131.62c1.32-.18,2.05,.29,1.91,1.73-.8-.39-1.39-1.02-1.91-1.73Z"/><path class="cr" d="M223.67,323.14c-.31,0-.62,0-.92,0-.92,.32-1.83,.33-2.75-.01,2.43-.43,4.84-1.26,7.35-.47-1.2,.37-2.43,.51-3.68,.48Z"/><path class="dl" d="M278.33,329.09c.04,.26,.29,.76-.07,.7-.71-.11-1.54-.24-1.77-1.16l1.84,.46Z"/><path class="bj" d="M220,323.13c.92,0,1.83,0,2.75,.01-1.15,.82-2.45,.29-3.68,.43,.31-.15,.62-.29,.94-.44Z"/><path class="dt" d="M185.56,262.5c-3.99,1.65-8.14,2.87-12.06,4.74-8.25,3.93-15.48,9.02-21,16.74v-18.26c1.34,.13,1.09,1.24,1.19,2.06,.17,1.42-.13,2.89,.5,4.88,1.53-1.99,3.52-2.69,5.4-3.58,.44-.21,.84-.58,.83-1.03-.08-2.19,1.53-3.18,2.93-4.34,4.53-3.75,8.64-7.92,12.8-12.07,1.91-1.91,4.13-3.57,6.18-5.39,2.95-2.61,6-5.08,8.7-7.99,4.24-4.57,8.69-8.95,14.14-12.14,1.81-1.06,3.23-2.47,4.5-4.14,1.9-2.5,4.74-4.08,6.65-6.62,.92-1.21,1.67-2.31,1.22-3.93-.22-.8-.1-1.69,.62-2.32,.31-.17,.63-.19,.96-.05,.95,.58,.3,1.89,1.16,2.51,.22,.08,.43,.13,.66,.15,5.06-.28,10.12-.41,15.16,.04,.23,.05,.46,.14,.67,.25,.95,1.27,.49,2.18-.86,2.59-1.03,.32-1.73,.95-2.37,1.71-3.08,3.61-6.72,6.67-10.11,9.93-3.83,3.66-8.14,6.89-11.88,10.68-4.4,4.45-8.92,8.75-13.44,13.08-1.23,1.17-2.61,1.81-4.25,2.02-.92,.11-1.79,.19-1.99,1.44-.52,3.32-2.85,5-5.43,6.07,.59-.12,1.5-.17,2.39,.09,.53,.15,1.05,.37,1.06,1.03,.01,.79-.69,.71-1.17,.8-.97,.18-1.96,.25-2.94,.38-.56,.07-.2,.43-.19,.68Z"/><path class="ap" d="M185.56,262.5c-.29-.07-.59-.21-.88-.19-.58,.04-1.2,.05-1.12-.7,.05-.57,.69-.45,1.13-.49,1.53-.12,3.11,.25,5.23-.44-2.42-.87-4.43-.12-6.92-.88,3.06-.88,5.53-1.63,7.1-3.89,.39-.56,1.03-1.01,.94-1.76-.27-2.17,.39-3.14,2.81-2.99,1.88,.12,3.24-1.02,4.41-2.68,1.05-1.49,2.93-2.38,4.29-3.69,5.12-4.97,10.04-10.15,15.33-14.93,1.46-1.32,2.72-3.07,4.84-3.81,1.37-.48,1.64-2.41,2.87-3.39,3.21-2.56,6.18-5.38,8.78-8.57,.25-.31,.57-.68,.93-.44,1.59,1.02,1.17-.76,1.71-1.19,1.91-1.66,4.15-.8,6.27-.81,1.87-.1,3.76-.39,5.6,.2,1.26,1.3,1.12,2.81,.12,4.01-3.04,3.61-6.58,6.76-9.98,10.02-3.79,3.63-7.89,6.93-11.38,10.91-2.35,2.68-5.23,4.88-7.83,7.35-2.37,2.25-4.72,4.53-7.2,6.68-3.15,2.73-6.97,4.72-9.36,8.3-.4,.6-1.19,.58-1.64,.77,1.62-.27,3.3-1.02,5.11-1.26,.47,0,.94,.01,1.38,.19,.54,.31,1.08,.61,.89,1.39,0,.14,0,.29,0,.43-7.86-.1-15.72-.09-23.42,1.87Z"/><path class="av" d="M218.16,209.21c.1,1.19-.3,2.46,.52,3.55,.24,.33,.31,.72,.01,1.05-1.41,1.6-2.72,3.29-4.26,4.74-2.04,1.91-4.16,3.61-5.72,6.08-.94,1.49-3.13,2.24-4.84,3.17-1.97,1.07-3.83,2.23-4.93,4.26-.43,.8-1.18,1.22-1.89,1.61-2.94,1.63-4.93,4.14-6.63,6.94-.12,.19-.25,.4-.44,.52-4.03,2.47-6.95,6.31-10.7,9.02-3.74,2.7-6.54,6.28-9.97,9.24-2.52,2.17-5.04,4.38-7.64,6.48-.33,.27-.51,.63-.39,1,.72,2.17-.71,2.79-2.31,3.42-1.31,.52-2.84,.72-3.57,2.25-.23,.47-.54,1.33-1.28,1.05-.71-.27-1.18-.93-1.18-1.81,0-1.6,0-3.21-.01-4.81,0-.47-.09-.91-.44-1.26,0-3.22,0-6.43,0-9.65,1.63,.32,1.43,1.88,1.98,2.92,.33,1.33-.06,2.74,.42,4.2,.96-.17,1.36-.96,1.85-1.58,3.38-4.28,7.63-7.65,11.72-11.19,3.79-3.28,7.93-6.16,11.13-10.11,1.29-1.59,2.96-2.86,4.47-4.26,4.92-4.56,9.63-9.4,14.8-13.63,4.54-3.71,7.78-8.9,13.21-11.54,.49-.24,.75-.74,1.02-1.21,1.79-3.01,2.37-3.09,4.93-.75,.04,.1,.09,.2,.13,.3Z"/><path class="em" d="M153.86,259.28c-.46-1.07-.91-2.14-1.37-3.21,0-6.58,0-13.16,0-19.74,1.21,.09,1.04,1.06,1.17,1.83,.5,1.69-.13,3.36-.04,5.05,.24,1.98,.03,3.97,.19,5.95,.04,.54,.07,1.15,.64,1.38,.66,.27,.88-.42,1.25-.75,.23-.2,.41-.47,.67-.62,6.4-3.89,10.87-9.9,16.26-14.9,1.57-1.46,3.32-2.7,4.98-4.04,2.34-1.9,4.08-4.57,7.1-5.62,.48-.17,.92-.63,1.16-1.09,1.8-3.5,4.66-6.06,7.75-8.26,5.58-3.98,9.57-9.77,15.49-13.34,1.41-.85,2.67-1.97,2.94-3.88,.22-1.58,1.31-2.45,2.97-2.09,1.03,.23,1.26-.17,1.57-1.04,.63-1.77,.73-3.57,.81-5.41,.03-.87,.06-2.1,1.34-1.98,1.06,.1,.96,1.21,1,2.04,.09,2.51-.24,5.05,.46,7.53,.04,4.19,.02,8.37,.01,12.55,0,.98,.14,2-.68,2.79-.82-.98-.31-2.14-.46-3.21-.82-.94-.84-2.05-.77-3.22,.08-1.43,.34-2.88-.2-4.26-1.24,.49-2.39,1.36-2.95,2.38-1.41,2.54-4.21,3.74-5.61,6.24-.62,1.1-2.07,1.34-2.87,2.23-4.86,5.3-11.26,8.96-15.74,14.68-.66,.84-1.37,1.85-2.35,2.15-2.92,.89-4.52,3.48-6.9,5.04-.52,.35-.9,.85-1.13,1.42-1.04,2.54-2.93,4.24-5.32,5.48-1.11,.58-1.95,1.38-2.44,2.62-.84,2.11-2.3,3.64-4.66,3.96-1.46,.2-1.74,1.39-2.21,2.38-.93,1.99-1.94,3.39-4.61,3.22-1.72-.11-2.8,1.5-3.22,3.35-.5,2.24-1.94,2.98-4.23,2.4Z"/><path class="bn" d="M152.94,238.15c-.04-.64,.13-1.32-.45-1.82,.15-.46,.3-.92,.45-1.38,.05-.4-.28-.62-.45-.91,.36-.62,.04-1.24-.01-1.86-.16-.73,.43-.83,.8-.69,1.63,.63,2.58-.35,3.58-1.34,2.5-2.46,5.29-4.6,7.89-6.93,7.32-6.56,14.57-13.22,21.26-20.44,2.06-2.22,4.62-3.73,6.95-5.58,1.73-1.37,3.69-2.5,4.57-4.68,.06-.14,.16-.29,.28-.35,4.38-2.3,6.98-6.59,10.61-9.75,3.96-3.45,8.78-6.19,11.61-10.91,.27-.45,.69-.83,1.12-1.14,5.97-4.29,10.84-9.82,16.46-14.48,2.9-2.4,5.61-5.05,8.52-7.45,2.7-2.23,5.92-4.7,6.46-8.82,.12-.91,.9-1.26,1.75-.98,1.06,.35,2.3,.35,3.08,1.36,.38,.74-.16,1.69,.52,2.37,.1,.19,.17,.39,.22,.6,.05,.91-.06,1.88-1.25,1.68-1.27-.22-1.75,.57-2.43,1.3-3.52,3.81-7.45,7.23-10.94,11.07-.73,.8-1.79,1.16-2.71,1.7-4.75,2.76-7.71,7.31-11.32,11.2-.73,.78-1.96,1.14-2.25,1.97-.26,.74,.85,1.78,.06,2.76-.89,.95-2.23,1.41-2.74,2.83-.28,.77-1.24,.67-1.99,.4-1.03-.76-1.86-.89-2.52,.5-.39,.82-1.07,1.59-1.88,1.97-4.63,2.21-7.47,6.46-11.17,9.72-3.08,2.71-6.35,5.23-9.03,8.42-1.34,1.59-3.21,2.9-4.92,3.98-4.2,2.65-7.11,6.44-10.35,9.97-2.18,2.37-4.45,4.59-7.14,6.42-1.81,1.23-3.38,2.79-4.68,4.67-1.39,2-3.25,3.6-5.33,4.97-3.46,2.29-5.99,5.64-9.12,8.32-.98,.84-1.84,2.23-3.51,1.32Z"/><path class="em" d="M152.5,234.03c.41,.25,1.08,.31,1.11,.84,.02,.4-.43,.09-.67,.07-.15-.16-.31-.31-.46-.47,0-.15,0-.3,.01-.44Z"/><path class="de" d="M130,89.87c.4-2.02,1.51-3.23,3.67-3.27-1,1.34-2.32,2.33-3.67,3.27Z"/><path class="bw" d="M114.44,103.71c-.24-1.39,.64-1.55,1.68-1.53-.32,.77-.93,1.23-1.68,1.53Z"/><path class="bl" d="M122.69,96.39c.02-1.18,.56-1.76,1.78-1.54-.44,.69-1.04,1.2-1.78,1.54Z"/><path class="ch" d="M74.84,135.16c.02-17.1,.04-34.21,.06-51.31,.15-.02,.29-.04,.44-.07,.16,.26,.23,.54,.21,.85,0,16.07,0,32.15-.02,48.22,0,.79,.4,1.68-.35,2.38-.11-.03-.22-.05-.34-.07Z"/><path class="bk" d="M75.18,135.23c.05-1.3,.14-2.59,.14-3.89,.03-15.83,.05-31.66,.07-47.5,.14-.11,.28-.11,.42,0-.01,16.2-.02,32.4-.05,48.61,0,.94,.41,2.02-.58,2.77Z"/><path class="eq" d="M75.81,83.85h-.57c0-.62,.45-.7,.93-.7,6.17,0,12.33-.05,18.5,.04,.13,0,.26,.14,.39,.22,0,.15,0,.3-.05,.45-5.79,0-11.59,0-17.38-.01-.61,0-1.21,0-1.82,0Z"/><path class="af" d="M323.34,311.63c-1.33-.03-2.66-.11-3.98-.09-.64,.01-.98-.21-1.07-.83,1.71,.19,3.58-.56,5.06,.91Z"/><path class="ce" d="M257.2,140.32c-.87-.83-2.17-.32-3.17-1.11-.68-.54-1.08,.42-.85,1.02,.4,1.06-.03,1.87-.66,2.49-3,2.98-5.09,6.9-9.13,8.79-.71,.33-1.23,.69-1.45,1.58-.54,2.21-3.07,2.24-4.36,3.75-3.15,3.69-7.38,6.24-10.5,10.03-1.6,1.95-4.42,2.71-6.02,4.77-2.69,3.47-6.41,5.82-9.42,8.84-2.76,2.77-6.12,4.82-8.63,7.81-.59,.7-1.32,1.25-1.44,2.27-.05,.41-.35,1.01-.67,1.13-3.83,1.4-5.33,5.56-8.77,7.37-5.49,2.89-8.89,8.05-13.26,12.15-2.66,2.49-5.11,5.15-8.16,7.24-2.17,1.49-3.41,4.09-5.64,5.61-3.45,2.35-6.28,5.39-9.31,8.22-.75,.7-1.56,.93-2.28-.16-.24-.36-.66-.3-.97,.05-.46,0-.92,0-1.38,0,.32-.45,.92-.71,.92-1.37,.41-.72,1.41-.25,1.84-.92-1.06-1.41-.14-2.41,.95-2.87,2.74-1.16,4.49-3.59,6.97-5.09,.96-.58,1.31-2.13,2.25-2.79,1.82-1.3,2.83-3.61,5.23-4.16,.2-.05,.52-.25,.53-.4,.17-3.18,3.64-3.27,4.98-5.34,1.46-2.24,3.89-3.37,5.85-5.03,3.02-2.57,5.56-5.62,8.26-8.52,.36-.39,.65-1,1.22-.95,2.88,.25,3.69-2.23,4.97-3.91,.65-.85,1.17-1.73,2.08-2.33,2.63-1.72,4.57-4.11,6.57-6.5,1.42-1.7,3.39-3.1,5.37-4.13,1.13-.59,2.18-1.16,2.8-2.15,1.7-2.68,4.19-4.29,6.76-6.02,1.73-1.16,2.68-3.36,4.53-4.65,1.14-.8,1.75-2.37,3.49-2.31,.17,0,.46-.23,.5-.4,1.13-4.14,4.92-5.8,7.75-8.35,1.51-1.36,2.23-3.44,4.15-4.46,3.36-1.78,5.53-4.92,8.29-7.38,.29-.25,.5-.63,.83-.79,2.49-1.16,4-2.54,1.31-5.04-.08-.07,.09-.41,.15-.65,1.15,.03,1.48,1.35,2.51,1.47,.81,.09,1.39,1.31,2.27,.69,1.02-.72,0-1.68,.02-2.53,1.59,1.16,3.33,2.18,4.14,4.13,.21,.21,.44,.41,.65,.62,.56,.55,1.96,.65,1.23,1.93-.65,1.13-1.6,1.55-2.8,.67h0c-.74-.65-.23-1.55-.46-2.3Z"/><path class="cy" d="M151.08,233.02c-11.01,0-22.02,0-33.03,0,.58-.5,1.29-.38,1.97-.38,9.7,0,19.39,0,29.09,0,.68,0,1.39-.12,1.97,.38Z"/><path class="ci" d="M224.59,259.28c3.2-.23,6.17-1.09,8.55-3.39,.33-.32,.62-.8,1.12-.61,1.95,.74,3.12-.52,4.07-1.77,1.49-1.95,3.23-3.78,3.85-6.3,.36-1.44,1.34-1.99,2.79-1.57,1.12,.32,2.26,.65,3.27-.2,.66-.56,1.69-1.22,.19-2.03-.49-.27-.72-.66-.38-1.11,1.12-1.5,1.44-3.38,2.39-4.93,.72-1.17,2.11-1.11,3.33-1.04,1.53,.09,2.35-.36,2.71-2.02,.45-2.06,2.2-2.93,4.12-2.68,1.56,.2,2.1-1.04,3.15-1.46,1.61-.64,1.17-1.65,.88-2.79-.19-.71,.05-1.29,.66-1.81,1.21-1.01,2.64-1.77,3.36-3.34,.27-.59,1.14-.65,1.87-.4,1.91,.65,2.98-.14,3.67-1.97,.79-2.09,2.35-3.34,4.71-3.31,.93,.01,1.73-.34,1.99-1.24,.3-1.07-.65-.96-1.29-1.09-.53-.11-.77-.43-.66-.99,.24-1.15,2.94-2.34,4.03-1.71,1.08,.63,1.95-.12,2.43-.66,1.51-1.71,3.79-2.85,4.05-5.56,.12-1.28,1.29-2.29,2.33-2.67,1.98-.71,3.98-1.8,5.04-3.23,2.21-3.01,6.95-3.55,7.56-8.07,.16-1.16,1.49-1.93,2.87-1.81,1.13,.1,.87,1.05,.93,1.78,.21,.93,.8,1.06,1.54,.67,.48-.26,.9-.72,1.28,.07,.31,.65-.21,.99-.57,1.35-.96,.97-2.21,1.89-3.26,2.36-2.28,1.03-2.87,3.87-5.43,4.42-1.23,.27-1.04,1.83-1.95,2.64-3.96,3.55-7.58,7.5-11.63,10.93-4,3.39-7.21,7.49-10.94,11.11-1.67,1.62-4.16,1.7-5.71,3.63-.98,1.22-2.26,2.21-2.91,3.7-.25,.58-.75,1.38-1.25,1.13-1.98-.98-1.91,.67-2.81,1.61-2.98,3.08-5.57,6.61-9.35,8.86-.2,.12-.54,.17-.59,.32-1.05,3.05-4.05,3.91-6.25,5.68-1.01,.81-.51,2.43-1.63,3.19-1.56,1.05-3.09,2.16-4.73,3.08-1.63,.91-2.75,2.96-5.11,2.39-.41-.1-.68,.38-.53,.8,.4,1.1-.16,1.88-.7,2.74-.91,1.42-.86,1.48-3.03,1.24-1.06-.11-2.12-.41-2.94,.6-2-.46-4.01-.91-6.01-1.37-.56-1.09,0-1.3,.97-1.36,.77-.05,1.65,.33,2.55-.6-1.85-.64-3.69-.01-5.45-.48,.8-1.43,1.86-.94,2.86-.74Z"/><path class="ci" d="M231.01,263.89c.75-.38,1.32-.04,1.84,.47-.64-.06-1.33,.09-1.84-.47Z"/><path class="bg" d="M257.66,142.62c2.5-.32,2.5-.34,.92-3.22,2.71,1.17,4.73,3.15,6.43,5.51-.39,.41,.15,1.43-.92,1.39-.48,.52-1.1,.52-1.7,.38-1.69-.41-3-.16-3.57,1.75-.13,.43-.54,.9-.95,.93-2.24,.2-3.42,2.18-5.26,3.02-1.44,.66-2.36,1.84-3.25,3.12-1.51,2.18-3.11,4.32-5.06,6.16-.56,.52-1.16,1.2-1.97,.96-1.96-.59-2.76,.7-3.2,2.08-.85,2.68-3.65,3.86-4.61,6.42-.17,.47-.86,.59-1.37,.76-1.78,.6-3.69,.92-4.88,2.67-.3,.45-1.13,1.04-1.38-.24,.72-1.08-.23-1.66-.74-2.33-.49-.64-.58-1.75,.13-1.55,3,.85,3.25-2.07,4.44-3.27,2.01-2.01,4.14-3.99,5.84-6.34,1.27-1.75,3.5-2.41,5.32-3.52,.59-.36,1.19-.7,1.61-1.23,3.53-4.37,8.21-7.64,11.62-12.12,.36-.48,.64-1.04,1.45-.53,.86,.54,.9,.47,1.1-.81Z"/><path class="ce" d="M254.44,135.27c-1.71,.18-2.76-.3-2.3-2.29,.77,.76,1.53,1.53,2.3,2.29Z"/><path class="ai" d="M256.64,87.53c1.37-.2,2.1,.31,1.96,1.77-.79-.43-1.41-1.06-1.96-1.77Z"/><path class="er" d="M242.5,312.1c.89-.5,1.72-.66,2.3,.45-.79-.05-1.63,.22-2.3-.45Z"/><path class="er" d="M239.28,311.64c.93,.1,1.94-.3,2.76,.45-.93-.09-1.94,.29-2.76-.45Z"/><path class="cv" d="M233.32,311.23c.52-.05,1.02-.04,1.39,.4-.47,.17-.93,.62-1.4,0,0-.13,0-.26,0-.4Z"/><path class="fk" d="M104.24,335.47l-1.37,.06c-.97-.76-2.33,.38-3.24-.66,.02-.09,.04-.17,.05-.26,1.5,.05,3,.1,4.5,.15,.02,.24,.04,.48,.06,.72Z"/><path class="cp" d="M312.8,167.92c11.31-.03,22.62-.06,33.93-.09-.74,.81-1.71,.49-2.59,.5-10.43,.02-20.86,.02-31.29,.02-.05-.14-.07-.28-.05-.43Z"/><path class="bx" d="M90.61,334.08c1.32,.04,2.64,.07,3.96,.11,.04,.12,.08,.23,.12,.35-1.45,0-2.89,.01-4.34,.01-.05,0-.11-.07-.16-.1l.42-.37Z"/><path class="df" d="M99.63,334.87c1.04,.42,2.29-.18,3.24,.66-1.34-.23-2.81,.48-4.05-.53l.81-.13Z"/><path class="af" d="M322.87,313.47c.15,1.43,1.95,1.49,2.3,2.76-.61-.05-1.5,.14-1.77-.18-1.76-2.12-4.12-1.59-6.36-1.66-.72-.02-1.5-.07-1.39-1.05,.09-.81,.85-.82,1.44-.75,1.94,.23,3.74,1.32,5.78,.9Z"/><path class="af" d="M318.79,316.71c-.97,.52-1.93,.59-3.27,.01,1.33-.68,2.29-.58,3.27-.01Z"/><path class="ay" d="M73.95,333.68c-.16,.53,.79,.84,.28,1.41-.13,.14-.44,.22-.63,.18-.75-.17-.51-.82-.56-1.31-.04-.46-.01-.92-.01-1.38,0-53.22,0-106.44,.05-159.66,0-.88-.94-2.33,.87-2.74,.77,1.11,.44,2.37,.44,3.57,.02,51.83,.02,103.65-.01,155.48,0,1.48,.62,3.06-.43,4.45Z"/><path class="bi" d="M73.95,333.68c0-54.5,0-109,0-163.5,1.5,.52,.89,1.8,.89,2.75,.03,24.39,.03,48.77,.03,73.16,0,27.6,0,55.2,0,82.79,0,.83-.16,1.81,.21,2.47,.81,1.48-.07,1.88-1.13,2.32Z"/><path class="cl" d="M76.69,168.35c.15,0,.31,0,.46,0,0,55.11,.02,110.22,.02,165.33-.82-.93-.46-2.05-.46-3.08-.02-54.08-.02-108.16-.03-162.24Z"/><path class="dv" d="M95.06,83.41c-5.98,0-11.96-.02-17.95-.02-.65,0-1.39-.22-1.88,.47-.11,0-.22,0-.33,0,.11-.79,.67-.94,1.33-.94,5.94,0,11.89,0,17.83,.03,.33,0,.67,.3,1,.46Z"/><path class="er" d="M259.13,325.77c.46-.34,.86-.52,1.28,0h-1.28Z"/><path class="an" d="M248.49,264.45c.32-.04,.63,.02,.65,.4,.02,.44-.3,.66-.69,.74-.32,.07-.63-.01-.65-.4-.02-.44,.3-.64,.69-.74Z"/><path class="dg" d="M206.68,259.28c-2.24,.95-4.53,1.24-6.98,.5,2.78,.28,3.83-1.95,5.09-3.59,.77-1,1.6-1.69,2.62-2.38,3.39-2.29,6.41-5.03,9.31-7.92,2.83-2.82,5.72-5.6,8.82-8.11,1.29-1.04,2.04-2.41,3.15-3.53,3.74-3.74,7.75-7.2,11.59-10.83,2.82-2.67,5.48-5.5,8.35-8.12,1.3-1.19-.6-.84-.73-1.47,.13-.77,1.51-.33,1.5-1.33,.65-.96,1.67-.99,2.65-.98,1.9,.01,3.8-.19,5.69,.16,1.42,.31,1.67,1.85,2.69,2.59-1.71,2.64-4.36,4.14-6.92,5.76-.45,.28-1.2,.55-1.26,.91-.48,2.94-3.33,3.26-5.08,4.77-1.19,1.02-2.65,1.76-3.07,3.51-.12,.51-.7,1.09-1.21,1.31-3.01,1.29-4.44,4.3-6.84,6.18-3.11,2.43-5.51,5.69-9.1,7.56-1.43,.75-1.69,2.59-3.03,3.73-3.5,2.97-7.26,5.66-10.41,9.03-.25,.27-.74,.48-.52,.89,.43,.8,1.45,.18,2.58,1.2-2.65-.25-4.61,.44-6.58,1.08l-.92-.92c-.46-.37-.92-.48-1.38,0Z"/><path class="b" d="M259.96,199.57c0,4.28-.01,8.57-.02,12.85-.29,.14-.54,.08-.74-.18-.76-1.74-.32-3.57-.38-5.36-.1-2.79,.05-5.58-.08-8.37,0-.66-.38-1.18-.65-1.74-.29-2.23-1.17-4.44-.38-6.73-.06-1.01-.08-2.01,.04-3.01,.23-.74,.05-1.64,.83-2.16,.9,1.57,.6,3.46,1.37,5.06,0,3.22,0,6.43,0,9.65Z"/><path class="j" d="M262.68,197.18c.56,.79,.7,1.6,.22,2.36-.08,.12-.94,.02-1.03-.18-.41-.88,.57-1.4,.81-2.18Z"/><path class="dd" d="M260.79,195.7c-.54-.94-.35-1.57-.09-2.67,.79,1.05,.69,1.69,.09,2.67Z"/><path class="w" d="M258.58,184.87c-.01,.79-.02,1.58-.04,2.37-1.22-.07-1.34-1.14-1.65-1.94-1.42-3.72-3.89-6.52-7.22-8.66-.7-.45-2.06-.61-1.53-2.06,.58-.06,1.16-.19,1.69,.18,2.11,.64,3.38,2.44,5.06,3.67,1.13,2.2,3.24,3.83,3.68,6.42Z"/><path class="ct" d="M249.84,174.77h-1.82c-1.58,.99-3.03-.2-4.54-.26-2.25-.2-4.49,.48-6.74,0-4.54-.09-8.1,2.13-11.03,5.22-2.75,2.9-4.99,6.22-4.38,10.6-.38,2.08,.02,4.16-.05,6.24-.06,.44-.34,.79-.49,1.2-.04,.22-.08,.45-.1,.68,0,.25-.02,.49-.02,.74-.06,4.17,.11,8.33-.09,12.49-.08,.26-.18,.51-.28,.77h-.78c0-5.37-.01-10.73-.02-16.09-.49-3.35,.02-6.74-.36-10.1,.22-.82,.7-1.53,.97-2.34,.11-.32,.17-.65,.29-.97,.29-.59,.63-1.15,.96-1.72,1.25-2.76,3.46-4.58,6.02-6,.94-.52,1.52-1.49,2.55-1.86,.57-.18,1.1-.44,1.61-.74,1.71-.71,3.51-.8,5.32-.83,2.45,.6,4.99,.19,7.45,.68,.36,.46,.87,.45,1.38,.45h0c.81,.64,1.84,.61,2.75,.93,.46,.3,.92,.61,1.38,.91Z"/><path class="fh" d="M259.47,212.41c.16,0,.32,0,.47,.01,.59,.5,.43,1.2,.47,1.84-1.39,.2-2.19-.21-1.84-1.8,.1-.16,.25-.26,.43-.29,.19,.01,.34,.09,.47,.23Z"/><path class="d`" d="M294.4,175.69c.74,.05,1.63-.2,1.84,.92-1.38,1.22-1.42-.23-1.84-.92Z"/><path class="et" d="M220.92,183.04l-.02,.92c-.88,.33-.48,1.28-.91,1.83-.92,3.48-.26,7.04-.48,10.55-.89-1.74-.25-3.6-.44-5.39-.1-.97,.22-1.98-.32-3.03-.88,.52-.69,1.38-.56,2,.5,2.44-.95,4.55-1.05,6.9-.05,1.25-.89,.78-1.61,.25-1.45-1.07-2.86-.55-2.81,1.15,.09,2.68-2.04,3.6-3.59,4.78-2.63,1.98-5.42,3.75-7.54,6.31-1.28,1.55-3.56,2.25-3.89,4.59-3.07-.25-3.68,3.09-5.95,4.08-1.79,.78-2.97,2.28-3.85,4.05-1,2.01-2.34,3.7-4.7,4.3-.57,.14-1.19,.46-1.57,.88-4.62,5.17-10.58,8.96-15.05,14.24-1.79,2.12-4.79,3.11-5.58,6.12-.14,.54-.87,.51-1.34,.73-1.63,.75-3.46,1.19-4.13,3.26-.28,.87-1.04,1.1-1.69,.1-.5-.77-.96-1.5-.92-2.51,.08-1.83,.02-3.67,.02-5.5,.51-2.31,2.3-3.23,4.29-3.87,1.14-.37,2.08-.97,2.79-1.91,1.8-2.39,3.82-4.74,6.2-6.39,2.43-1.68,4.28-3.64,6-5.94,.89-1.18,2.14-2.15,3.68-2.62,.97-.3,1.63-1.14,2.21-1.94,.95-1.31,1.99-2.51,3.25-3.52,.66-.53,1.22-1.17,1.33-2.07,.13-1.04,.72-1.64,1.73-1.88,.52-.12,1.12-.23,1.4-.71,2.11-3.6,6.2-5.16,8.67-8.28,2.64-3.34,6.11-5.68,9.05-8.62,.75-.75,1.24-1.74,1.9-2.58,.73-.94,1.58-1.65,2.79-1.86,2.31-.39,3.8-1.86,4.86-3.82,2.3-4.26,6.11-7.07,9.65-10.15,.34-.38,1.27,.72,1.37-.77,.08-1.24,1.58-1.9,2.77-2.44,.24,.26,.61,.39,.76,.08,.82-1.64,2.19-2.39,3.92-2.77,1.71-.37,3.33-.96,3.36-3.16,2.94-1.13,3.02-4.5,4.98-6.4,.44-.42,.93-1.24,1.44-.91,2.95,1.93,3.22-1.3,4.45-2.35,2.67-2.28,3.45-6.39,7.36-7.59,.78-.24,1.36-1.19,1.98-1.85,.51-.54,.74-1.78,1.75-.38,.36,.49,.86-.19,1.04-.5,1.45-2.46,3.38-3.46,6.13-2.18-.23,1.05-1.08,.85-1.82,.93-.79,.08-1.65-.28-2.45,.39,.39,.7,1.05,.44,1.59,.52,.55,.09,1.37-.25,1.5,.6,.09,.61-.39,1.09-.85,1.53-5.69,5.41-12.05,10.06-17.85,15.37-1.74,1.59-2.4,4.12-4.75,5.07-.2,.08-.12,.85-.17,1.3-.34,.34-.77,.2-1.17,.22-.71-.08-.61-.86-1.02-1.18,.02,0-.12-.08-.12-.08,0,0,.02,.16,.03,.17,.15,.34,.02,.63-.11,.93-.11,.14-.24,.27-.37,.4-1.65,.5-3.44,.2-5.05,.93-.43,.25-1.05-.08-1.38,.46-1.08,1.34-2.77,1.82-4.07,2.86-1.73,1.38-3.25,2.91-4.21,4.94-.8,.13-.98,.68-.91,1.38Z"/><path class="ej" d="M236.53,172.47c0-.15,0-.3,0-.45,.46-.35,.92-.39,1.38,0,.46,0,.92,0,1.38,0,1.91-.14,4,.46,5.47-1.5,.29-.39,1.06-.57,1.59,.11-.47,.85-1.95,.62-2.01,1.86-2.6,0-5.2,0-7.81,0Z"/><path class="ej" d="M245.71,172.93c-.26-2.15,1.02-.29,1.73-1.22-.48,1.51-1.21,1.1-1.73,1.23h0Z"/><path class="bu" d="M146.73,345.29c-.15,.09-.32,.25-.5,.27-.19,.02-.4-.09-.6-.15,.17-.11,.34-.24,.53-.31,.19-.07,.43-.19,.57,.19Z"/><path class="bn" d="M153.86,229.88c-.21,1.12-1.1,.87-1.84,.92-.79-.11-1.65,.25-2.55-.47,1.48-.85,2.99-.26,4.39-.45Z"/><path class="do" d="M242.04,131.6h.92c-.06,.51,.17,1.4-.35,1.42-.89,.03-.43-.9-.57-1.42Z"/><path class="eo" d="M161.48,321.21c-.23-.63-.49-1.22,0-1.7,.03-.03,.38,.17,.52,.32,.69,.76-.32,.93-.51,1.39Z"/><path class="cw" d="M189.81,313.78c.04,.37-.13,.52-.36,.43-.24-.1-.45-.3-.67-.46,.16-.09,.3-.21,.47-.26,.33-.1,.54,.01,.55,.29Z"/><path class="cg" d="M256.74,313.47c-.49-.05-1.04,.12-1.44-.29-.05-.05,.08-.45,.2-.49,.7-.24,1.1,.07,1.24,.77Z"/><path class="dp" d="M236.53,173.86c1.92-.25,3.94,.53,5.79-.59,.49-.29,.73,.41,1.12,.6,.5,.5,.86,1.1,.86,1.82,0,4.71,.33,9.43-.17,14.14,.03,.86-1.37,1.4-.82,2.18,.68,.95,1.65,.16,2.47-.15,.43-.17,.91-.2,1.35-.06,.86,.27,1.59,.79,1.54,1.75-.06,1.1-1.03,1.25-1.87,1.25-.9,0-1.79-.35-2.36-.31,3.65,2.28,8.06,1.23,12.3,1.54,.71,.05,1.35,.26,1.84,.8,.56,.06,.86,.37,.9,.93-.21,.19-.43,.35-.67,.5-2.95,.45-5.9-.14-8.86-.07-6.2,.16-5.55-.59-5.59,5.73-.01,1.91,0,3.81,0,5.72,0,1.01-.07,1.99-.83,2.77-2.17,.02-4.35,.04-6.52,.06-.19-.01-.38-.03-.57-.05-.82-.85-.82-1.93-.83-3.01-.02-3.59,.03-7.19-.04-10.77-.05-.24-.1-.48-.18-.7-.6-.73-1.42-.41-2.14-.42-3.27-.01-6.54,.01-9.81-.02-.88,0-1.86,.23-2.51-.68-.78-2.13-1.09-4.27,0-6.4,.75-1,1.86-.94,2.92-.95,3.14-.04,6.28-.04,9.41,0,1.65,.02,2.36-.66,2.35-2.32-.03-3.44-.03-6.89,0-10.33,.01-1.07-.05-2.17,.93-2.94Z"/><path class="av" d="M218.16,200.49c1.15,.28,.9,1.22,.91,2,.02,2.24,0,4.48,0,6.72h-.92c-1.49-1.18-1.88-2.6-1.19-4.42,.53-1.39,.3-3,1.19-4.3Z"/><path class="fh" d="M206.68,259.28c.46-1.37,.92-.66,1.38,0h-1.38Z"/><path class="dt" d="M190.21,258.35c-.31,.58-.7,.54-1.05,.56-.01,0-.07-.33-.06-.33,.32-.08,.65-.14,1.11-.23Z"/><path class="em" d="M218.16,200.49c-.15,1.94,.39,3.92-.8,5.78-.67,1.05,1,1.82,.8,2.95-.08,0-.18,.02-.23-.01-2.32-1.81-3.52-1.4-4.55,1.55-.46,1.32-2.62,2.14-4.14,2.96-2.73,1.48-3.72,4.66-6.23,6.25-5.27,3.35-8.92,8.5-13.82,12.31-3.17,2.47-6.42,5.22-8.83,8.42-1.46,1.94-3.4,3.32-4.95,5.06-1.78,2-4.24,3.62-6.43,5.37-4.27,3.41-8.44,6.9-11.83,11.22-.14,.18-.22,.41-.37,.58-.65,.76-1.39,1.83-2.37,1.55-1.09-.31-.45-1.59-.54-2.45-.09-.91-.02-1.83-.02-2.75,1.81-.57,3.98-.56,3.55-3.61-.19-1.36,3.04-3.12,4.53-2.89,1.22,.19,2.26,.11,2.56-1.5,.22-1.18,1.38-1.96,1.56-3.25,.09-.65,.74-1.08,1.6-.92,2.15,.39,3.62-1.09,4.03-2.64,.65-2.45,2.35-3.47,4.22-4.43,1.9-.97,3.05-2.43,3.83-4.35,.48-1.19,1.03-2.43,2.67-2.45,.24,0,.66-.26,.69-.45,.38-2.24,2.14-2.74,3.93-3.29,1.44-.44,2.58-1.56,3.31-2.69,2.53-3.88,6.45-6.16,9.79-9.1,1.66-1.46,2.94-3.45,4.77-4.57,2.91-1.77,5.12-4.39,7.28-6.73,1.75-1.89,4.19-3.53,5.19-6.2,.3-.8,.63-.14,.79,.29Z"/><path class="bg" d="M222.75,177.53c-1.29,2.51-3.55,4.2-5.51,6.08-1.11,1.06-2.24,1.98-2.92,3.4-1.32,2.79-2.98,5.08-6.51,5.33-1.6,.12-2.04,1.94-2.89,3.05-1.37,1.77-2.74,3.41-4.85,4.4-.92,.43-1.84,1.25-2.34,2.14-1.89,3.35-5.27,5.13-7.86,7.74-1.17,1.17-3.27,1.5-3.16,3.76,0,.1-.19,.31-.3,.32-2.28,.05-2.73,1.85-3.66,3.43-.97,1.65-2.95,2.49-3.99,4.31-.71,1.25-2.12,2.04-3.71,2.7-2.1,.87-3.56,3.06-4.58,5.27-.23,.49-.34,1.09-.92,1.23-4.08,.98-5.83,4.65-8.48,7.28-1.12,1.11-1.96,2.45-3.83,2.61-1.95,.16-2.79,2.15-4.3,3.1,0-1.84,0-3.67,0-5.51,1.04-.13,1.88-.65,2.55-1.41,2.26-2.58,5.12-4.54,7.31-7.22,1.53-1.89,4.34-2.29,5.72-4.43,3.56-5.53,9.74-8.33,13.81-13.32,1.54-1.89,3.21-3.66,4.73-5.56,.89-1.11,2.14-1.66,3.18-2.5,3.05-2.48,6.17-4.84,8.94-7.7,2.62-2.7,5.65-5.06,8.44-7.64,1.55-1.43,3.33-2.63,4.47-4.48,1.27-2.06,3.61-2.66,5.46-3.93,.92-.63,1.66-1.4,2.19-2.3,1.32-2.26,1.26-2.3,3.01-.12Z"/><path class="bg" d="M257.2,140.32c.69,.66,.39,1.51,.46,2.3-1.53-.49-.74-1.44-.46-2.3Z"/><path class="ao" d="M232.26,261.71c.59-.55,.98-1.46,1.92-1.13,.35,.12,.54,.6,.31,.94-.59,.9-1.43,.38-2.24,.19Z"/><path class="fh" d="M210.58,258.8c-.07,.38-.37,.43-.67,.43-.28,0-.63,0-.62-.4,0-.09,.34-.2,.54-.24,.28-.06,.6-.2,.75,.22Z"/><path class="ds" d="M243.5,190.23c.14,.01,.27,.06,.37,.16,.6,.91,1.22,.16,1.83,.03h.92c.61,.55,1.23,.55,1.84,0,3.36-.02,6.73-.04,10.09-.06-.97,2.15,.53,4.3,.02,6.45-3.66,0-7.31,0-10.97,0-.6,0-1.5,.18-1.65-.45-.41-1.73-1.84-1.24-3.54-1.6,1.6-.98,2.87-.56,4.02-.7,.56-.07,1.28,.29,1.62-.43,.07-.16-.19-.53-.37-.74-.5-.6-1.14-.81-1.81-.31-.52,.38-1.06,.62-1.69,.56-.78-.07-1.74,.32-2.1-.85-.4-1.3,.43-1.71,1.41-2.05Z"/><path class="r" d="M258.95,212.33c.01-4.85,.02-9.69,.04-14.54,.16-.02,.33-.03,.49-.05,0,4.89,0,9.78,0,14.67-.17-.03-.35-.05-.52-.08Z"/><path class="am" d="M220.92,196.81c3.98,0,7.96-.03,11.94,.03,1.23,.02,2.64-1.26,3.68,.44-5.51,.36-11.02,.39-16.53-.01l.92-.46Z"/><path class="em" d="M220,197.27h16.53c-.01,.18-.02,.36-.04,.53-5.47-.26-10.94-.43-16.4,.09-.03-.21-.06-.41-.09-.62Z"/><path class="em" d="M220.08,198.08c.1,.07,.21,.12,.33,.17,.46,4.42,.44,8.83,.01,13.25-.12,.19-.24,.38-.35,.57,0-4.66,0-9.32,.01-13.98Z"/><path class="bg" d="M220.92,183.04c-.3,.04-.91,.39-.69-.29,.2-.63,.35-1.82,1.6-1.09-.3,.46-.61,.92-.91,1.38Z"/><path class="em" d="M220,185.79c.05-.73-.21-1.62,.91-1.83-.3,.61-.6,1.22-.91,1.83Z"/><path class="bg" d="M230.11,173.86c.15-1.09,.78-.73,1.38-.46-.36,.45-.87,.45-1.38,.46Z"/><path class="ec" d="M237.91,172.01h-1.38c0-.31,0-.61,0-.92-.12-.1-.15-.2-.12-.31,.04-.1,.08-.15,.12-.15,.98-.06,1.44,.4,1.38,1.38Z"/><path class="bg" d="M217.04,185.1l.44,.17c-.07,.19-.14,.38-.24,.55-.01,.02-.33-.09-.33-.13,0-.2,.08-.39,.13-.6Z"/><path class="bg" d="M236.53,170.64c0,.15,0,.3,0,.46-.34-.05-.77,.13-.97-.32-.03-.08,.09-.28,.2-.35,.31-.19,.57-.05,.77,.21Z"/><path class="dp" d="M245.71,190.41c-.21,.21-.46,.41-.64,.65-.38,.53-.64,1.49-1.47,1.02-1-.58,.53-1.05,.27-1.69l1.83,.03Z"/><path class="dp" d="M248.47,190.42c-.61,1.23-1.23,1.23-1.84,0,.61,0,1.23,0,1.84,0Z"/></svg>