<svg width="16" height="13" viewBox="0 0 16 13" fill="none" xmlns="http://www.w3.org/2000/svg">
<path d="M15 2.84375V10.1562C15 10.264 14.9473 10.3673 14.8536 10.4435C14.7598 10.5197 14.6326 10.5625 14.5 10.5625H0.5C0.367392 10.5625 0.240215 10.5197 0.146447 10.4435C0.0526784 10.3673 0 10.264 0 10.1562C0 10.0485 0.0526784 9.94517 0.146447 9.86899C0.240215 9.7928 0.367392 9.75 0.5 9.75H3.5V7.71875C3.5 7.61101 3.55268 7.50767 3.64645 7.43149C3.74021 7.3553 3.86739 7.3125 4 7.3125H7V5.28125C7 5.17351 7.05268 5.07017 7.14645 4.99399C7.24021 4.9178 7.36739 4.875 7.5 4.875H10.5V2.84375C10.5 2.73601 10.5527 2.63267 10.6464 2.55649C10.7402 2.4803 10.8674 2.4375 11 2.4375H14.5C14.6326 2.4375 14.7598 2.4803 14.8536 2.55649C14.9473 2.63267 15 2.73601 15 2.84375Z" fill="black"/>
</svg>
